<?xml version="1.0" encoding="utf-8"?>
<!-- Generator: Adobe Illustrator 16.0.0, SVG Export Plug-In . SVG Version: 6.00 Build 0)  -->
<!DOCTYPE svg PUBLIC "-//W3C//DTD SVG 1.1//EN" "http://www.w3.org/Graphics/SVG/1.1/DTD/svg11.dtd">
<svg version="1.1" id="Layer_1" xmlns="http://www.w3.org/2000/svg" xmlns:xlink="http://www.w3.org/1999/xlink" x="0px" y="0px"
	 width="916.679px" height="592.028px" viewBox="0 0 916.679 592.028" enable-background="new 0 0 916.679 592.028"
	 xml:space="preserve">
<g>
	<g>
		<g>
			<path fill="#FFFFFF" d="M520.443,592.028H398.729l0.028-0.275L458.325,0l0.253,2.419L520.443,592.028z M399.281,591.528h120.606
				L458.335,4.89L399.281,591.528z"/>
		</g>
	</g>
	<g>
		<g>
			<path fill="#FFFFFF" d="M529.889,592.028h-134.86l0.208-0.372l252.593-452.589L529.889,592.028z M395.88,591.528h133.622
				l116.857-448.802L395.88,591.528z"/>
		</g>
	</g>
	<g>
		<g>
			<path fill="#FFFFFF" d="M538.357,592.028H348.741l0.657-0.456l465.83-322.792L538.357,592.028z M350.341,591.528h187.786
				l274.2-320.129L350.341,591.528z"/>
		</g>
	</g>
	<g>
		<g>
			<path fill="#FFFFFF" d="M590.69,592.028H174.924l741.755-170.217L590.69,592.028z M179.338,591.528h411.229l322.432-168.359
				L179.338,591.528z"/>
		</g>
	</g>
	<g>
		<g>
			<path fill="#FFFFFF" d="M521.652,592.028H386.791l-0.049-0.187l-117.89-452.773l0.953,1.708L521.652,592.028z M387.178,591.528
				h133.623L270.322,142.726L387.178,591.528z"/>
		</g>
	</g>
	<g>
		<g>
			<path fill="#FFFFFF" d="M567.939,592.028H378.322l-0.075-0.087L101.451,268.78l1.593,1.104L567.939,592.028z M378.553,591.528
				H566.34L104.352,271.398L378.553,591.528z"/>
		</g>
	</g>
	<g>
		<g>
			<path fill="#FFFFFF" d="M741.757,592.028l-415.822-0.028L0,421.811L741.757,592.028z M326.112,591.528h411.23L3.68,423.168
				L326.112,591.528z"/>
		</g>
	</g>
</g>
</svg>
