<?xml version="1.0" encoding="utf-8"?>
<!-- Generator: Adobe Illustrator 17.0.0, SVG Export Plug-In . SVG Version: 6.00 Build 0)  -->
<!DOCTYPE svg PUBLIC "-//W3C//DTD SVG 1.1//EN" "http://www.w3.org/Graphics/SVG/1.1/DTD/svg11.dtd">
<svg version="1.1" id="Layer_1" xmlns="http://www.w3.org/2000/svg" xmlns:xlink="http://www.w3.org/1999/xlink" x="0px" y="0px"
	 width="99.909px" height="59.947px" viewBox="0 0 99.909 59.947" enable-background="new 0 0 99.909 59.947" xml:space="preserve">
<g>
	<g>
		<g>
			<g>
				<g>
					<path fill="#FFFFFF" d="M0,55.971h1.541c0.912,0,1.486,0.519,1.486,1.306v0.011c0,0.877-0.704,1.335-1.563,1.335H0.687v1.259H0
						V55.971z M1.485,58.004c0.519,0,0.845-0.291,0.845-0.698v-0.012c0-0.457-0.331-0.698-0.845-0.698H0.687v1.408
						C0.687,58.004,1.485,58.004,1.485,58.004z"/>
					<path fill="#FFFFFF" d="M3.733,55.971h1.743c0.491,0,0.878,0.145,1.128,0.391c0.207,0.213,0.324,0.503,0.324,0.843v0.011
						c0,0.643-0.387,1.028-0.933,1.186l1.056,1.48h-0.81L5.28,58.518H5.27H4.421v1.364H3.733V55.971z M5.426,57.908
						c0.492,0,0.805-0.256,0.805-0.654v-0.011c0-0.418-0.301-0.647-0.811-0.647H4.421v1.312H5.426z"/>
					<path fill="#FFFFFF" d="M7.601,57.937v-0.011c0-1.101,0.85-2.023,2.052-2.023c1.199,0,2.038,0.912,2.038,2.011v0.012
						c0,1.1-0.851,2.021-2.05,2.021C8.439,59.947,7.601,59.037,7.601,57.937z M10.97,57.937v-0.011c0-0.759-0.554-1.391-1.329-1.391
						c-0.778,0-1.318,0.62-1.318,1.379v0.012c0,0.759,0.553,1.392,1.33,1.392C10.427,59.317,10.97,58.696,10.97,57.937z"/>
					<path fill="#FFFFFF" d="M12.524,55.971h1.459c1.229,0,2.077,0.844,2.077,1.943v0.012c0,1.1-0.848,1.956-2.077,1.956h-1.459
						V55.971z M13.983,59.254c0.82,0,1.357-0.552,1.357-1.317v-0.011c0-0.765-0.537-1.33-1.357-1.33h-0.771v2.658
						C13.212,59.254,13.983,59.254,13.983,59.254z"/>
					<path fill="#FFFFFF" d="M16.834,58.222v-2.251h0.688v2.224c0,0.726,0.373,1.116,0.989,1.116c0.609,0,0.982-0.369,0.982-1.089
						v-2.251h0.688v2.217c0,1.167-0.658,1.754-1.681,1.754C17.483,59.942,16.834,59.355,16.834,58.222z"/>
					<path fill="#FFFFFF" d="M20.955,57.937v-0.011c0-1.111,0.831-2.023,2.015-2.023c0.722,0,1.157,0.251,1.531,0.609l-0.441,0.509
						c-0.312-0.291-0.648-0.486-1.095-0.486c-0.748,0-1.29,0.615-1.29,1.379v0.012c0,0.766,0.542,1.392,1.29,1.392
						c0.479,0,0.789-0.197,1.123-0.509l0.441,0.446c-0.406,0.426-0.855,0.693-1.587,0.693
						C21.805,59.947,20.955,59.059,20.955,57.937z"/>
					<path fill="#FFFFFF" d="M26.212,56.607h-1.239v-0.636h3.172v0.636h-1.238v3.275h-0.694L26.212,56.607L26.212,56.607z"/>
					<path fill="#FFFFFF" d="M28.488,57.937v-0.011c0-1.101,0.85-2.023,2.05-2.023c1.201,0,2.038,0.912,2.038,2.011v0.012
						c0,1.1-0.849,2.021-2.048,2.021C29.326,59.947,28.488,59.037,28.488,57.937z M31.856,57.937v-0.011
						c0-0.759-0.553-1.391-1.328-1.391c-0.777,0-1.32,0.62-1.32,1.379v0.012c0,0.759,0.553,1.392,1.33,1.392
						C31.313,59.317,31.856,58.696,31.856,57.937z"/>
					<path fill="#FFFFFF" d="M33.121,59.311l0.413-0.491c0.375,0.325,0.749,0.508,1.235,0.508c0.424,0,0.692-0.194,0.692-0.492
						v-0.011c0-0.279-0.156-0.429-0.883-0.599c-0.831-0.2-1.302-0.446-1.302-1.166v-0.012c0-0.67,0.559-1.134,1.336-1.134
						c0.569,0,1.022,0.174,1.418,0.493l-0.367,0.518c-0.353-0.261-0.704-0.401-1.062-0.401c-0.401,0-0.637,0.207-0.637,0.464v0.011
						c0,0.302,0.179,0.436,0.929,0.615c0.826,0.2,1.255,0.496,1.255,1.145v0.011c0,0.733-0.574,1.167-1.396,1.167
						C34.154,59.937,33.59,59.729,33.121,59.311z"/>
					<path fill="#FFFFFF" d="M38.377,59.311l0.412-0.491c0.372,0.325,0.747,0.508,1.233,0.508c0.426,0,0.693-0.194,0.693-0.492
						v-0.011c0-0.279-0.156-0.429-0.882-0.599c-0.834-0.2-1.303-0.446-1.303-1.166v-0.012c0-0.67,0.56-1.134,1.335-1.134
						c0.57,0,1.022,0.174,1.42,0.493l-0.369,0.518c-0.352-0.261-0.704-0.401-1.061-0.401c-0.402,0-0.639,0.207-0.639,0.464v0.011
						c0,0.302,0.179,0.436,0.929,0.615c0.826,0.2,1.256,0.496,1.256,1.145v0.011c0,0.733-0.575,1.167-1.396,1.167
						C39.408,59.937,38.845,59.729,38.377,59.311z"/>
					<path fill="#FFFFFF" d="M42.215,55.971h2.9v0.615h-2.214v1.017h1.962v0.615h-1.962v1.049h2.24v0.616h-2.927L42.215,55.971
						L42.215,55.971z"/>
					<path fill="#FFFFFF" d="M45.959,55.971h0.688v3.283h2.055v0.628h-2.743V55.971z"/>
					<path fill="#FFFFFF" d="M49.42,55.971h2.897v0.615h-2.211v1.017h1.96v0.615h-1.96v1.049h2.239v0.616H49.42V55.971z"/>
					<path fill="#FFFFFF" d="M52.991,57.937v-0.011c0-1.111,0.832-2.023,2.016-2.023c0.723,0,1.157,0.251,1.531,0.609l-0.439,0.509
						c-0.313-0.291-0.649-0.486-1.097-0.486c-0.748,0-1.289,0.615-1.289,1.379v0.012c0,0.766,0.541,1.392,1.289,1.392
						c0.481,0,0.789-0.197,1.122-0.509l0.442,0.446c-0.408,0.426-0.854,0.693-1.587,0.693
						C53.839,59.947,52.991,59.059,52.991,57.937z"/>
					<path fill="#FFFFFF" d="M58.25,56.607h-1.24v-0.636h3.174v0.636h-1.241v3.275H58.25V56.607z"/>
					<path fill="#FFFFFF" d="M60.525,57.937v-0.011c0-1.101,0.849-2.023,2.05-2.023c1.202,0,2.038,0.912,2.038,2.011v0.012
						c0,1.1-0.848,2.021-2.05,2.021C61.363,59.947,60.525,59.037,60.525,57.937z M63.894,57.937v-0.011
						c0-0.759-0.554-1.391-1.33-1.391s-1.317,0.62-1.317,1.379v0.012c0,0.759,0.553,1.392,1.329,1.392S63.894,58.696,63.894,57.937z
						"/>
					<path fill="#FFFFFF" d="M65.159,59.311l0.412-0.491c0.376,0.325,0.75,0.508,1.235,0.508c0.425,0,0.693-0.194,0.693-0.492
						v-0.011c0-0.279-0.156-0.429-0.883-0.599c-0.832-0.2-1.302-0.446-1.302-1.166v-0.012c0-0.67,0.56-1.134,1.335-1.134
						c0.57,0,1.022,0.174,1.418,0.493L67.7,56.925c-0.353-0.261-0.705-0.401-1.062-0.401c-0.402,0-0.637,0.207-0.637,0.464v0.011
						c0,0.302,0.179,0.436,0.927,0.615c0.826,0.2,1.257,0.496,1.257,1.145v0.011c0,0.733-0.576,1.167-1.396,1.167
						C66.193,59.937,65.629,59.729,65.159,59.311z"/>
					<path fill="#FFFFFF" d="M70.676,55.971h1.457c1.23,0,2.078,0.844,2.078,1.943v0.012c0,1.1-0.848,1.956-2.078,1.956h-1.457
						V55.971z M72.133,59.254c0.823,0,1.358-0.552,1.358-1.317v-0.011c0-0.765-0.535-1.33-1.358-1.33h-0.771v2.658
						C71.362,59.254,72.133,59.254,72.133,59.254z"/>
					<path fill="#FFFFFF" d="M75.047,55.971h2.899v0.615h-2.213v1.017h1.961v0.615h-1.961v1.049h2.24v0.616h-2.927L75.047,55.971
						L75.047,55.971z"/>
					<path fill="#FFFFFF" d="M81.853,55.942h0.637l1.722,3.94h-0.727l-0.396-0.944h-1.85l-0.401,0.944h-0.705L81.853,55.942z
						 M82.836,58.328l-0.677-1.563l-0.67,1.563H82.836z"/>
					<path fill="#FFFFFF" d="M84.47,57.937v-0.011c0-1.095,0.838-2.023,2.018-2.023c0.68,0,1.099,0.19,1.501,0.531l-0.435,0.52
						c-0.302-0.258-0.599-0.419-1.095-0.419c-0.722,0-1.268,0.632-1.268,1.379v0.012c0,0.804,0.53,1.396,1.328,1.396
						c0.369,0,0.704-0.117,0.943-0.297v-0.731h-0.998v-0.598h1.663v1.642c-0.385,0.33-0.937,0.608-1.629,0.608
						C85.274,59.947,84.47,59.077,84.47,57.937z"/>
					<path fill="#FFFFFF" d="M90.41,55.942h0.636l1.721,3.94h-0.726l-0.396-0.944h-1.849l-0.402,0.944H88.69L90.41,55.942z
						 M91.393,58.328l-0.676-1.563l-0.669,1.563H91.393z"/>
					<path fill="#FFFFFF" d="M92.546,55.971h0.762l1.177,3.005l1.175-3.005h0.74l-1.625,3.937h-0.603L92.546,55.971z"/>
					<path fill="#FFFFFF" d="M97.073,55.971h2.9v0.615H97.76v1.017h1.962v0.615H97.76v1.049H100v0.616h-2.927V55.971z"/>
				</g>
			</g>
		</g>
	</g>
	<g>
		<g>
			<g>
				<polygon fill="#FFFFFF" points="66.832,46.68 58.735,37.226 69.301,44.548 65.958,31.628 72.359,43.087 74.135,25.625 
					75.974,42.971 82.311,31.624 78.97,44.543 89.535,37.219 81.438,46.676 93.959,43.794 79.907,51.155 99.909,51.155 
					81.331,1.833 67.333,1.833 48.362,51.155 68.356,51.155 54.311,43.802 				"/>
			</g>
			<path fill="#FFFFFF" d="M0,1.833h19.624c10.597,0,17.924,4.906,17.924,16.223c0,11.642-6.281,16.745-17.466,16.745h-7.261v16.354
				H0V1.833z M12.821,24.466h2.159c4.644,0,9.223,0,9.223-6.018c0-6.215-4.252-6.28-9.223-6.28h-2.159
				C12.821,12.168,12.821,24.466,12.821,24.466z"/>
			<g>
				<path fill="#FFFFFF" d="M61.099,34.016c0-3.624-1.094-6.316-2.93-8.366c-2.207-2.465-5.487-4.003-9.237-5.109l-3.271-0.982
					c-2.224-0.72-5.691-1.831-5.691-4.709c0-2.747,3.141-4.121,5.496-4.121c3.14,0,7.188,1.915,9.543,3.878L59.07,4.056
					C54.688,1.57,48.605,0,43.633,0c-9.877,0-17.007,6.542-17.007,16.549c0,9.551,5.3,11.644,13.344,13.935
					c2.749,0.785,7.785,2.027,7.785,5.625c0,3.469-3.206,4.972-6.214,4.972c-4.384,0-9.32-2.492-13-4.954l-3.877,10.188
					c5.036,3.532,11.12,5.625,17.334,5.625c2.126,0,4.286-0.254,6.365-0.797c2.786-0.726,5.425-1.976,7.633-3.848
					c0.63-0.535,1.184-1.118,1.678-1.733L54.309,43.8l3.991,0.918c1.104-1.624,1.821-3.453,2.251-5.372l-1.818-2.123l1.975,1.368
					C60.984,37.091,61.099,35.547,61.099,34.016z"/>
			</g>
		</g>
	</g>
</g>
</svg>
