<?xml version="1.0" encoding="utf-8"?>
<!-- Generator: Adobe Illustrator 17.0.0, SVG Export Plug-In . SVG Version: 6.00 Build 0)  -->
<!DOCTYPE svg PUBLIC "-//W3C//DTD SVG 1.1//EN" "http://www.w3.org/Graphics/SVG/1.1/DTD/svg11.dtd">
<svg version="1.1" id="Capa_1" xmlns="http://www.w3.org/2000/svg" xmlns:xlink="http://www.w3.org/1999/xlink" x="0px" y="0px"
	 width="70px" height="30px" viewBox="0 0 70 30" style="enable-background:new 0 0 70 30;" xml:space="preserve">
<g>
	<path style="fill:#FFFFFF;" d="M24.727,6.569c0-3.27-2.651-5.921-5.921-5.921c-3.27,0-5.921,2.651-5.921,5.921
		c0,1.448,0.52,2.774,1.384,3.803l4.537,5.752l4.537-5.752c0.079-0.094,0.154-0.19,0.227-0.288l0.009-0.012l-0.001,0
		C24.3,9.09,24.727,7.88,24.727,6.569z M18.806,9.917c-1.849,0-3.348-1.499-3.348-3.348c0-1.849,1.499-3.348,3.348-3.348
		c1.849,0,3.348,1.499,3.348,3.348C22.154,8.418,20.655,9.917,18.806,9.917z"/>
	<g>
		<path style="fill:#FFFFFF;" d="M31.464,11.662l-5.275,3.454l-2.815-1.81l-1.512,1.917l3.228,2.076l1.509,8.633l-6.572-3.31
			l0.036-5.117l-1.256,1.592l-1.175-1.49l-0.035,5.014l-6.448,3.296l1.479-8.617l3.167-2.021l-1.513-1.918l-2.606,1.663
			l-4.708-4.552L0,24.839l9.555,4.622l9.255-4.731l9.4,4.734l9.554-4.785L31.464,11.662z M8.616,26.307l-5.367-2.596l4.442-9.16
			l2.524,2.44L8.616,26.307z M27.529,17.143l2.952-1.933l4.051,8.369l-5.405,2.707L27.529,17.143z"/>
	</g>
</g>
</svg>
