<?xml version="1.0" encoding="utf-8"?>
<!-- Generator: Adobe Illustrator 17.0.0, SVG Export Plug-In . SVG Version: 6.00 Build 0)  -->
<!DOCTYPE svg PUBLIC "-//W3C//DTD SVG 1.1//EN" "http://www.w3.org/Graphics/SVG/1.1/DTD/svg11.dtd">
<svg version="1.1" id="Layer_1" xmlns="http://www.w3.org/2000/svg" xmlns:xlink="http://www.w3.org/1999/xlink" x="0px" y="0px"
	 width="170px" height="170px" viewBox="0 0 170 170" enable-background="new 0 0 170 170" xml:space="preserve">
<rect x="24.766" y="24.766" transform="matrix(-0.7071 0.7071 -0.7071 -0.7071 204.1342 84.556)" fill="#0B6C81" width="119.579" height="119.579"/>
<g>
	<polygon fill="#FFFFFF" points="52.764,92.327 64.627,92.327 64.627,87.865 48.479,87.865 48.309,87.864 48.309,103.75 
		52.639,103.75 52.639,92.393 	"/>
	<path fill="#FFFFFF" d="M48.31,72.271l32.418-0.005l0.069-0.03c6.997,0.065,12.648,5.739,12.648,12.728
		c0,6.999-5.669,12.68-12.684,12.728l-0.111-0.006l-7.931-0.008V81.61h4.477v11.697l0.374-0.009h3.089l0.171-0.003
		c4.531-0.091,8.176-3.78,8.176-8.316c0-4.561-3.681-8.264-8.245-8.319l-28.015-0.001l-0.108,0.002v4.857l0.004,0.087l11.953,0.004
		l0.012,4.461l-16.25-0.002l-0.049-0.003L48.31,72.271L48.31,72.271z"/>
	<polygon fill="#FFFFFF" points="113.239,66.423 132.825,99.438 135.623,94.804 118.265,66.423 	"/>
	<polygon fill="#FFFFFF" points="93.141,103.753 113.223,70.293 129.789,97.702 106.958,97.702 106.958,93.426 121.779,93.426 
		113.223,79.154 99.202,103.753 	"/>
	<polygon fill="#FFFFFF" points="132.825,99.438 106.958,99.431 106.958,103.753 130.282,103.743 130.317,103.641 	"/>
	<path fill="#FFFFFF" d="M66.381,99.297l0.018-17.689h4.478v17.689l-0.001,0.035h9.785l0.103,0.004
		C88.691,99.28,95.1,92.859,95.1,84.946c0-7.9-6.391-14.314-14.301-14.388l-0.138,0.003L46.71,70.56l-0.001,33.189H42.38
		l0.001-37.499l38.28-0.003h0.173c9.104,0.083,16.661,6.407,18.295,15.026l9.086-14.852h5.026L97.657,92.526l-1.512,2.554
		c-3.352,4.913-8.916,8.57-15.312,8.627l-0.173,0.001H66.381V99.297L66.381,99.297z"/>
</g>
</svg>
