<?xml version="1.0" encoding="utf-8"?>
<!-- Generator: Adobe Illustrator 17.0.0, SVG Export Plug-In . SVG Version: 6.00 Build 0)  -->
<!DOCTYPE svg PUBLIC "-//W3C//DTD SVG 1.1//EN" "http://www.w3.org/Graphics/SVG/1.1/DTD/svg11.dtd">
<svg version="1.1" id="Layer_1" xmlns="http://www.w3.org/2000/svg" xmlns:xlink="http://www.w3.org/1999/xlink" x="0px" y="0px"
	 width="170px" height="170px" viewBox="0 0 170 170" enable-background="new 0 0 170 170" xml:space="preserve">
<rect x="24.766" y="24.766" transform="matrix(-0.7071 0.7071 -0.7071 -0.7071 204.1342 84.556)" fill="#0B6C81" width="119.579" height="119.579"/>
<g>
	<path fill="#FFFFFF" d="M73.213,61.996L61.12,90.566c-0.974,2.082-1.594,4.341-2.924,6.29l-0.398,0.266
		c-1.24-0.177-2.834,0.532-3.632-0.665c-1.329-1.417-2.702-3.056-3.942-4.562c-0.044-0.133-0.088-0.442,0.044-0.442l4.961,1.062
		l3.057-6.157l5.315-9.701l6.777-11.472c0.886-1.196,1.551-2.48,2.525-3.632h0.399L73.213,61.996L73.213,61.996z"/>
	<polygon fill="#FFFFFF" points="50.564,88.18 52.007,79.072 49.12,79.072 47.678,88.18 41.606,88.18 45.159,65.738 51.231,65.738 
		49.958,73.774 52.845,73.774 54.118,65.738 60.189,65.738 56.637,88.18 	"/>
	<path fill="#FFFFFF" d="M93.052,72.316c-0.731-0.833-1.371-1.31-2.621-1.31c-3.155,0-4.48,3.482-4.872,5.953
		c-0.415,2.619-0.169,5.952,2.867,5.952c1.37,0,2.318-0.536,3.441-1.428l-1.352,6.28c-1.305,0.536-2.449,0.804-3.788,0.804
		c-4.97,0-8.598-3.78-7.382-11.459c1.592-10.06,8.767-11.756,11.713-11.756c1.071,0,2.09,0.148,3.01,0.536L93.052,72.316
		L93.052,72.316z"/>
	<path fill="#FFFFFF" d="M108.945,72.316c-0.731-0.833-1.371-1.31-2.621-1.31c-3.154,0-4.479,3.482-4.87,5.953
		c-0.416,2.619-0.169,5.952,2.867,5.952c1.369,0,2.317-0.536,3.44-1.428l-1.352,6.28c-1.305,0.536-2.448,0.804-3.787,0.804
		c-4.971,0-8.599-3.78-7.383-11.459c1.593-10.06,8.766-11.756,11.713-11.756c1.071,0,2.089,0.148,3.01,0.536L108.945,72.316
		L108.945,72.316z"/>
	<path fill="#FFFFFF" d="M110.034,88.18l3.553-22.441h5.537c5.297,0,9.102,1.727,8.168,7.619c-0.924,5.834-4.777,7.619-10.022,7.471
		l-1.164,7.352L110.034,88.18L110.034,88.18z M119.342,70.56l-0.452,0.029l-0.819,5.179c1.652,0.089,2.84-0.833,3.104-2.5
		C121.402,71.84,120.83,70.56,119.342,70.56L119.342,70.56z"/>
	<polygon fill="#FFFFFF" points="75.013,65.751 73.049,65.751 70.229,72.35 69.948,80.376 66.798,80.376 64.678,85.337 
		69.897,85.337 69.948,88.18 76.253,88.18 	"/>
	<path fill="#FFFFFF" d="M70.45,93.619c0.004-0.205-0.043-0.825-0.759-0.825c-0.809,0-1.206,0.786-1.338,1.54
		s-0.012,1.54,0.797,1.54c0.582,0,0.881-0.409,1.075-0.935h1.697c-0.199,1.131-1.33,2.333-2.971,2.333
		c-1.814,0-2.618-1.28-2.326-2.938c0.311-1.767,1.632-2.938,3.36-2.938c1.538,0.008,2.244,0.817,2.146,2.223H70.45L70.45,93.619z"/>
	<polygon fill="#FFFFFF" points="74.658,91.529 79.299,91.529 79.046,92.967 76.132,92.967 76.009,93.665 78.656,93.665 78.421,95 
		75.774,95 75.651,95.7 78.652,95.7 78.399,97.137 73.671,97.137 	"/>
	<path fill="#FFFFFF" d="M81.6,91.529h3.291c0.982,0,1.734,0.542,1.548,1.602c-0.103,0.581-0.478,1.194-1.088,1.406
		c0.439,0.181,0.639,0.7,0.579,1.398c-0.025,0.274-0.134,0.942-0.022,1.201H84.18c-0.037-0.282-0.018-0.573,0.011-0.864
		c0.047-0.534,0.098-1.092-0.585-1.092h-0.919l-0.344,1.956h-1.728L81.6,91.529L81.6,91.529z M82.896,93.979H83.8
		c0.322,0,0.772-0.055,0.86-0.558c0.062-0.354-0.098-0.557-0.757-0.557h-0.809L82.896,93.979L82.896,93.979z"/>
	<polygon fill="#FFFFFF" points="89.753,92.967 88.183,92.967 88.435,91.529 93.305,91.529 93.052,92.967 91.481,92.967 
		90.748,97.137 89.019,97.137 	"/>
	<polygon fill="#FFFFFF" points="95.355,91.529 97.083,91.529 96.096,97.137 94.368,97.137 	"/>
	<polygon fill="#FFFFFF" points="99.382,91.529 103.718,91.529 103.465,92.967 100.858,92.967 100.735,93.665 102.973,93.665 
		102.739,95 100.5,95 100.125,97.137 98.396,97.137 	"/>
	<polygon fill="#FFFFFF" points="105.745,91.529 107.472,91.529 106.486,97.137 104.758,97.137 	"/>
	<polygon fill="#FFFFFF" points="109.772,91.529 114.413,91.529 114.161,92.967 111.247,92.967 111.124,93.665 113.771,93.665 
		113.536,95 110.889,95 110.766,95.7 113.767,95.7 113.514,97.137 108.786,97.137 	"/>
	<path fill="#FFFFFF" d="M116.714,91.529h2.836c1.869,0,2.286,1.382,2.037,2.796c-0.303,1.72-1.406,2.812-3.361,2.812h-2.497
		L116.714,91.529L116.714,91.529z M117.709,95.7h0.675c1.076,0,1.387-0.872,1.479-1.398c0.062-0.354,0.125-1.335-1.124-1.335h-0.549
		L117.709,95.7L117.709,95.7z"/>
	<polygon fill="#FFFFFF" points="129.563,65.747 131.714,65.747 131.714,66.148 130.87,66.148 130.87,68.404 130.404,68.404 
		130.404,66.148 129.563,66.148 	"/>
	<polygon fill="#FFFFFF" points="132.015,65.747 132.67,65.747 133.403,67.827 133.41,67.827 134.125,65.747 134.772,65.747 
		134.772,68.404 134.33,68.404 134.33,66.353 134.322,66.353 133.585,68.404 133.202,68.404 132.465,66.353 132.458,66.353 
		132.458,68.404 132.015,68.404 	"/>
	<path fill="#FFFFFF" d="M40.31,104.495c0.32-0.283,0.687-0.474,0.971-0.474c0.555,0,0.89,0.362,0.661,1.397
		c-0.192,0.87-0.674,1.345-1.269,1.345c-0.304,0-0.5-0.132-0.763-0.462L40.31,104.495L40.31,104.495z M40.314,102.33l-0.892,4.024
		c-0.057,0.255-0.099,0.506-0.194,0.756h0.331l0.166-0.361c0.221,0.252,0.487,0.425,0.896,0.425c0.608,0,1.499-0.411,1.803-1.782
		c0.294-1.331-0.405-1.781-0.986-1.781c-0.324,0-0.678,0.166-0.99,0.384l-0.03,0.013l0.372-1.678L40.314,102.33L40.314,102.33z"/>
	<path fill="#FFFFFF" d="M45.941,103.673l-2.039,3.736c-0.421,0.767-0.922,0.965-1.372,0.965c-0.159,0-0.245-0.026-0.335-0.04
		l0.087-0.391c0.064,0.007,0.148,0.02,0.253,0.02c0.291,0,0.749-0.066,1.081-0.819l-0.427-3.472h0.502l0.345,2.621h0.014
		l1.388-2.621h0.503V103.673z"/>
	<path fill="#FFFFFF" d="M49.93,106.069c0.269,0.04,0.39,0.152,0.496,0.39c-0.251,0.178-0.528,0.265-0.833,0.265
		c-0.841,0-1.194-0.648-0.894-2.004s0.94-2.003,1.781-2.003s1.194,0.647,0.894,2.003c-0.126,0.568-0.311,1.012-0.546,1.33
		c-0.145-0.305-0.368-0.43-0.785-0.49L49.93,106.069L49.93,106.069z M51.633,106.981c-0.331,0-0.528-0.126-0.624-0.438
		c0.408-0.411,0.717-1.027,0.893-1.821c0.354-1.596-0.149-2.456-1.322-2.456c-1.172,0-2.057,0.86-2.412,2.456
		c-0.353,1.591,0.151,2.451,1.323,2.451c0.41,0,0.784-0.106,1.107-0.312c0.166,0.423,0.325,0.635,0.92,0.635L51.633,106.981
		L51.633,106.981z"/>
	<path fill="#FFFFFF" d="M54.327,107.11l0.104-0.467h-0.013c-0.339,0.305-0.748,0.531-1.139,0.531c-0.512,0-0.935-0.266-0.771-1.006
		l0.553-2.495h0.476l-0.55,2.482c-0.101,0.456,0.084,0.607,0.43,0.607c0.358,0,0.833-0.291,1.104-0.522l0.569-2.567h0.476
		l-0.762,3.437L54.327,107.11L54.327,107.11z"/>
	<path fill="#FFFFFF" d="M57.975,106.193c-0.349,0.317-0.842,0.569-1.186,0.569c-0.265,0-0.522-0.212-0.453-0.53
		c0.106-0.476,0.712-0.794,1.848-0.985L57.975,106.193L57.975,106.193z M56.749,104.555c0.144-0.231,0.469-0.534,0.999-0.534
		c0.411,0,0.671,0.171,0.57,0.626l-0.041,0.184c-1.59,0.271-2.249,0.646-2.416,1.397c-0.139,0.626,0.241,0.945,0.771,0.945
		c0.517,0,0.962-0.279,1.26-0.543l-0.054,0.479h0.49c-0.007-0.178,0.001-0.363,0.085-0.739l0.382-1.73
		c0.167-0.753-0.379-1.031-0.961-1.031c-0.648,0-1.146,0.331-1.452,0.727L56.749,104.555L56.749,104.555z"/>
	<polygon fill="#FFFFFF" points="60.923,102.33 59.863,107.11 59.387,107.11 60.447,102.33 	"/>
	<path fill="#FFFFFF" d="M61.987,103.673h0.477l-0.762,3.437h-0.477L61.987,103.673L61.987,103.673z M62.776,102.267l-0.126,0.568
		h-0.476l0.126-0.568H62.776L62.776,102.267z"/>
	<path fill="#FFFFFF" d="M63.826,103.674l0.251-1.131h0.476l-0.25,1.131h0.794l-0.091,0.412h-0.794l-0.541,2.439
		c-0.035,0.158,0.06,0.238,0.338,0.238c0.159,0,0.3-0.014,0.43-0.033l-0.086,0.391c-0.092,0.026-0.289,0.053-0.567,0.053
		c-0.516,0-0.705-0.133-0.608-0.57l0.559-2.518h-0.562l0.091-0.412L63.826,103.674L63.826,103.674z"/>
	<path fill="#FFFFFF" d="M68.173,103.673l-2.039,3.736c-0.421,0.767-0.921,0.965-1.371,0.965c-0.159,0-0.246-0.026-0.335-0.04
		l0.086-0.391c0.065,0.007,0.147,0.02,0.253,0.02c0.291,0,0.749-0.066,1.081-0.819l-0.427-3.472h0.503l0.344,2.621h0.014
		l1.388-2.621h0.503V103.673z"/>
	<path fill="#FFFFFF" d="M72.492,102.703h0.072l0.143,2.457H71.26L72.492,102.703L72.492,102.703z M70.246,107.11l0.782-1.5h1.711
		l0.117,1.5h0.556l-0.408-4.779h-0.787l-2.527,4.779H70.246L70.246,107.11z"/>
	<path fill="#FFFFFF" d="M74.302,106.235c0.153,0.323,0.44,0.528,0.871,0.528c0.518,0,0.805-0.277,0.869-0.567
		c0.193-0.87-1.951-0.409-1.634-1.661c0.151-0.594,0.682-0.932,1.345-0.925c0.45,0.006,0.893,0.251,1.046,0.602l-0.395,0.29
		c-0.194-0.323-0.411-0.481-0.783-0.481c-0.404,0-0.669,0.204-0.736,0.507c-0.165,0.745,1.922,0.362,1.639,1.641
		c-0.148,0.667-0.805,1.005-1.429,1.005c-0.538,0-1.01-0.233-1.233-0.655L74.302,106.235L74.302,106.235z"/>
	<path fill="#FFFFFF" d="M77.239,106.235c0.153,0.323,0.44,0.528,0.871,0.528c0.518,0,0.805-0.277,0.869-0.567
		c0.193-0.87-1.952-0.409-1.634-1.661c0.151-0.594,0.683-0.932,1.345-0.925c0.45,0.006,0.892,0.251,1.046,0.602l-0.395,0.29
		c-0.194-0.323-0.411-0.481-0.783-0.481c-0.404,0-0.669,0.204-0.736,0.507c-0.165,0.745,1.922,0.362,1.639,1.641
		c-0.147,0.667-0.805,1.005-1.429,1.005c-0.538,0-1.01-0.233-1.233-0.655L77.239,106.235L77.239,106.235z"/>
	<path fill="#FFFFFF" d="M82.062,107.11l0.104-0.467h-0.013c-0.34,0.305-0.748,0.531-1.139,0.531c-0.511,0-0.935-0.266-0.771-1.006
		l0.553-2.495h0.476l-0.55,2.482c-0.101,0.456,0.084,0.607,0.429,0.607c0.358,0,0.834-0.291,1.104-0.522l0.569-2.567H83.3
		l-0.762,3.437L82.062,107.11L82.062,107.11z"/>
	<path fill="#FFFFFF" d="M84.356,103.673h0.477l-0.152,0.683h0.013c0.369-0.469,0.712-0.734,1.281-0.734l-0.105,0.476
		c-0.598,0.013-0.996,0.403-1.377,1.109l-0.422,1.902h-0.477L84.356,103.673L84.356,103.673z"/>
	<path fill="#FFFFFF" d="M87.913,106.193c-0.348,0.317-0.841,0.569-1.186,0.569c-0.265,0-0.522-0.212-0.452-0.53
		c0.105-0.476,0.712-0.794,1.848-0.985L87.913,106.193L87.913,106.193z M86.687,104.555c0.144-0.231,0.469-0.534,0.999-0.534
		c0.411,0,0.671,0.171,0.57,0.626l-0.041,0.184c-1.591,0.271-2.25,0.646-2.417,1.397c-0.138,0.626,0.241,0.945,0.771,0.945
		c0.517,0,0.963-0.279,1.26-0.543l-0.054,0.479h0.49c-0.006-0.178,0.001-0.363,0.085-0.739l0.383-1.73
		c0.167-0.753-0.38-1.031-0.962-1.031c-0.648,0-1.145,0.331-1.451,0.727L86.687,104.555L86.687,104.555z"/>
	<path fill="#FFFFFF" d="M90.46,103.673l-0.103,0.466h0.013c0.34-0.304,0.748-0.529,1.138-0.529c0.511,0,0.936,0.265,0.771,1.004
		l-0.553,2.495H91.25l0.55-2.481c0.101-0.456-0.084-0.607-0.429-0.607c-0.358,0-0.833,0.291-1.104,0.521l-0.569,2.567h-0.476
		l0.762-3.437L90.46,103.673L90.46,103.673z"/>
	<path fill="#FFFFFF" d="M95.333,104.7c-0.04-0.416-0.253-0.679-0.664-0.679c-0.588,0-1.044,0.5-1.236,1.371
		c-0.193,0.87,0.039,1.371,0.628,1.371c0.437,0,0.714-0.146,1.086-0.633l0.345,0.171c-0.473,0.581-0.841,0.873-1.523,0.873
		c-0.86,0-1.259-0.675-1.014-1.782c0.246-1.107,0.944-1.781,1.804-1.781c0.708,0,0.95,0.397,1.05,0.931L95.333,104.7L95.333,104.7z"
		/>
	<path fill="#FFFFFF" d="M96.825,105.07c0.18-0.63,0.583-1.049,1.159-1.049c0.516,0,0.726,0.419,0.587,1.049H96.825L96.825,105.07z
		 M98.536,106.181c-0.277,0.357-0.657,0.582-1.081,0.582c-0.568,0-0.9-0.529-0.733-1.282h2.235l0.07-0.318
		c0.242-1.089-0.25-1.552-0.965-1.552c-0.846,0-1.551,0.673-1.796,1.778c-0.278,1.255,0.332,1.786,1.098,1.786
		c0.78,0,1.189-0.411,1.5-0.801L98.536,106.181L98.536,106.181z"/>
	<path fill="#FFFFFF" d="M104.7,103.55c-0.016-0.463-0.311-0.833-0.927-0.833c-0.557,0-0.946,0.264-1.058,0.74
		c-0.245,1.045,2.514,0.781,2.173,2.314c-0.154,0.694-0.701,1.403-1.918,1.403c-1.046,0-1.307-0.675-1.431-1.244l0.52-0.171
		c0.081,0.502,0.335,0.965,1.038,0.965c0.702,0,1.134-0.371,1.243-0.86c0.27-1.217-2.497-0.859-2.163-2.367
		c0.153-0.688,0.849-1.23,1.708-1.23c0.742,0,1.238,0.39,1.315,1.177L104.7,103.55L104.7,103.55z"/>
	<path fill="#FFFFFF" d="M106.191,105.07c0.18-0.63,0.583-1.049,1.159-1.049c0.516,0,0.728,0.419,0.587,1.049H106.191
		L106.191,105.07z M107.903,106.181c-0.278,0.357-0.658,0.582-1.082,0.582c-0.568,0-0.9-0.529-0.733-1.282h2.235l0.07-0.318
		c0.242-1.089-0.25-1.552-0.964-1.552c-0.847,0-1.551,0.673-1.797,1.778c-0.278,1.255,0.332,1.786,1.099,1.786
		c0.779,0,1.188-0.411,1.5-0.801L107.903,106.181L107.903,106.181z"/>
	<path fill="#FFFFFF" d="M109.527,103.673h0.476l-0.152,0.683h0.014c0.369-0.469,0.711-0.734,1.281-0.734l-0.106,0.476
		c-0.598,0.013-0.995,0.403-1.376,1.109l-0.422,1.902h-0.476L109.527,103.673L109.527,103.673z"/>
	<polygon fill="#FFFFFF" points="112.298,107.11 111.663,107.11 111.367,103.673 111.85,103.673 112.092,106.516 112.106,106.516 
		113.609,103.673 114.092,103.673 	"/>
	<path fill="#FFFFFF" d="M114.886,103.673h0.476l-0.761,3.437h-0.477L114.886,103.673L114.886,103.673z M115.674,102.267
		l-0.126,0.568h-0.476l0.125-0.568H115.674L115.674,102.267z"/>
	<path fill="#FFFFFF" d="M118.293,104.7c-0.04-0.416-0.252-0.679-0.664-0.679c-0.588,0-1.043,0.5-1.236,1.371
		c-0.193,0.87,0.04,1.371,0.628,1.371c0.437,0,0.714-0.146,1.086-0.633l0.345,0.171c-0.473,0.581-0.841,0.873-1.523,0.873
		c-0.86,0-1.259-0.675-1.014-1.782c0.245-1.107,0.944-1.781,1.804-1.781c0.708,0,0.95,0.397,1.05,0.931L118.293,104.7L118.293,104.7
		z"/>
	<path fill="#FFFFFF" d="M119.785,105.07c0.179-0.63,0.583-1.049,1.158-1.049c0.516,0,0.727,0.419,0.587,1.049H119.785
		L119.785,105.07z M121.496,106.181c-0.277,0.357-0.657,0.582-1.081,0.582c-0.568,0-0.9-0.529-0.734-1.282h2.235l0.07-0.318
		c0.242-1.089-0.251-1.552-0.965-1.552c-0.846,0-1.551,0.673-1.795,1.778c-0.278,1.255,0.331,1.786,1.099,1.786
		c0.779,0,1.188-0.411,1.5-0.801L121.496,106.181L121.496,106.181z"/>
	<path fill="#FFFFFF" d="M122.616,106.235c0.154,0.323,0.439,0.528,0.872,0.528c0.517,0,0.804-0.277,0.869-0.567
		c0.193-0.87-1.952-0.409-1.634-1.661c0.151-0.594,0.683-0.932,1.345-0.925c0.45,0.006,0.893,0.251,1.047,0.602l-0.395,0.29
		c-0.193-0.323-0.411-0.481-0.783-0.481c-0.404,0-0.669,0.204-0.736,0.507c-0.166,0.745,1.922,0.362,1.638,1.641
		c-0.147,0.667-0.805,1.005-1.429,1.005c-0.538,0-1.009-0.233-1.233-0.655L122.616,106.235L122.616,106.235z"/>
</g>
</svg>
