<?xml version="1.0" encoding="utf-8"?>
<!-- Generator: Adobe Illustrator 16.0.0, SVG Export Plug-In . SVG Version: 6.00 Build 0)  -->
<!DOCTYPE svg PUBLIC "-//W3C//DTD SVG 1.1//EN" "http://www.w3.org/Graphics/SVG/1.1/DTD/svg11.dtd">
<svg version="1.1" id="Layer_1" xmlns="http://www.w3.org/2000/svg" xmlns:xlink="http://www.w3.org/1999/xlink" x="0px" y="0px"
	 width="170px" height="170px" viewBox="0 0 170 170" enable-background="new 0 0 170 170" xml:space="preserve">
<rect x="24.767" y="24.767" transform="matrix(0.7071 -0.7071 0.7071 0.7071 -35.0244 84.5556)" fill="#0B6C81" width="119.578" height="119.578"/>
<g>
	<path fill="#FFFFFF" d="M68.075,59.712c1.505,0.119,2.246,0.196,3.72,0.374c0.479,0.06,0.935-0.149,1.015-0.473
		c0.258-0.99,0.389-1.489,0.64-2.49c0.083-0.327,0.325-0.295,0.529,0.07c0.649,1.116,0.966,1.68,1.583,2.812
		c0.205,0.37,0.752,0.723,1.215,0.816c1.378,0.281,1.881,0.407,3.55,0.852c0.46,0.124,0.534,0.333,0.2,0.45
		c-1.026,0.355-1.556,0.453-2.614,0.884c-0.341,0.136-0.465,0.557-0.276,0.93c0.571,1.139,0.84,1.748,1.367,2.967
		c0.175,0.399,0.01,0.443-0.368,0.109c-1.158-1.018-1.76-1.4-2.978-2.253c-0.405-0.282-1.012-0.385-1.357-0.239
		c-1.038,0.452-1.555,0.768-2.609,1.241c-0.346,0.158-0.553,0.023-0.465-0.29c0.272-0.967,0.408-1.535,0.672-2.5
		c0.085-0.315-0.188-0.786-0.609-1.035c-1.305-0.777-1.967-1.151-3.306-1.87C67.548,59.833,67.587,59.676,68.075,59.712"/>
	<path fill="#FFFFFF" d="M53.409,70.443c1.795-0.375,2.349-0.463,4.046-0.707c0.508-0.072,1.023-0.376,1.145-0.709
		c0.369-1.035,0.543-1.546,0.905-2.565c0.118-0.329,0.367-0.345,0.553-0.04c0.586,0.959,0.873,1.444,1.439,2.422
		c0.186,0.317,0.736,0.596,1.215,0.567c1.596-0.095,1.965-0.188,3.584-0.268c0.467-0.023,0.526,0.16,0.195,0.375
		c-1.242,0.806-1.621,1.135-2.722,1.799c-0.353,0.212-0.528,0.61-0.349,0.944c0.537,0.999,0.801,1.506,1.317,2.54
		c0.172,0.34-0.014,0.433-0.412,0.209c-1.206-0.682-1.819-0.997-3.078-1.568c-0.417-0.194-1.069-0.164-1.453,0.065
		c-1.163,0.695-1.553,0.945-3.116,1.925c-0.434,0.271-0.647,0.228-0.484-0.189c0.506-1.298,0.681-1.611,1.098-2.648
		c0.136-0.337-0.127-0.739-0.566-0.874c-1.358-0.417-2.048-0.593-3.462-0.882C52.807,70.748,52.871,70.565,53.409,70.443"/>
	<path fill="#FFFFFF" d="M45.657,84.051c1.64-0.135,2.428-0.165,3.954-0.169c0.496-0.002,1.097-0.271,1.344-0.61
		c0.769-1.042,1.148-1.559,1.902-2.581c0.243-0.329,0.478-0.316,0.527,0.03c0.14,1.07,0.209,1.611,0.323,2.701
		c0.038,0.351,0.444,0.669,0.888,0.731c1.544,0.215,1.791,0.256,3.348,0.545c0.42,0.078,0.43,0.266,0.028,0.403
		c-1.246,0.414-1.882,0.646-3.19,1.148c-0.422,0.164-0.803,0.599-0.796,0.958c0.007,1.103,0.007,1.659-0.007,2.782
		c-0.008,0.371-0.229,0.455-0.498,0.191c-0.823-0.792-1.247-1.18-2.134-1.92c-0.292-0.239-0.917-0.271-1.385-0.071
		c-1.428,0.619-2.153,0.951-3.621,1.637c-0.483,0.227-0.652,0.127-0.363-0.231c0.864-1.085,1.3-1.624,2.149-2.69
		c0.284-0.349,0.243-0.808-0.085-1.01c-1.028-0.629-1.56-0.919-2.687-1.452C44.989,84.273,45.13,84.095,45.657,84.051"/>
	<path fill="#FFFFFF" d="M71.977,102.192c-1.077,0.614-1.667,1.017-2.811,1.82c-0.371,0.262-0.6,0.823-0.506,1.245
		c0.288,1.29,0.425,1.948,0.697,3.325c0.089,0.45-0.104,0.597-0.427,0.323c-0.983-0.844-1.476-1.244-2.462-2.021
		c-0.326-0.258-0.906-0.227-1.289,0.071c-1.164,0.897-1.749,1.361-2.932,2.312c-0.391,0.317-0.553,0.186-0.371-0.277
		c0.56-1.411,0.834-2.096,1.374-3.436c0.179-0.438,0.052-0.981-0.286-1.207c-1.028-0.69-1.549-1.021-2.597-1.648
		c-0.341-0.202-0.251-0.412,0.193-0.472c1.385-0.176,2.068-0.244,3.426-0.353c0.441-0.037,0.94-0.399,1.104-0.806
		c0.52-1.27,0.776-1.89,1.271-3.081c0.162-0.391,0.377-0.394,0.481-0.019c0.317,1.16,0.472,1.752,0.782,2.967
		c0.099,0.394,0.535,0.71,0.962,0.702c1.326-0.028,1.99-0.057,3.278,0.095C72.287,101.779,72.325,101.995,71.977,102.192"/>
	<path fill="#FFFFFF" d="M89.668,104.188c-0.945,0.311-1.418,0.479-2.376,0.823c-0.314,0.111-0.459,0.519-0.32,0.904
		c0.419,1.165,0.635,1.748,1.075,2.918c0.147,0.384-0.014,0.454-0.357,0.149c-1.037-0.919-1.548-1.388-2.553-2.336
		c-0.335-0.312-0.863-0.463-1.184-0.326c-0.974,0.41-1.467,0.626-2.471,1.096c-0.333,0.155-0.5-0.007-0.376-0.358
		c0.388-1.062,0.574-1.572,0.941-2.574c0.122-0.332-0.046-0.855-0.368-1.171c-0.982-0.978-1.469-1.471-2.436-2.449
		c-0.31-0.319-0.248-0.479,0.14-0.357c1.203,0.38,1.805,0.57,3.003,0.958c0.386,0.127,0.795-0.026,0.91-0.331
		c0.351-0.952,0.523-1.411,0.861-2.32c0.108-0.289,0.296-0.223,0.42,0.153c0.383,1.156,0.578,1.737,0.974,2.908
		c0.128,0.378,0.551,0.794,0.941,0.918c1.207,0.397,1.806,0.592,3.017,0.984C89.898,103.905,89.972,104.087,89.668,104.188"/>
	<path fill="#FFFFFF" d="M105.545,99.496c-1.059,0.405-1.551,0.616-2.575,1.016c-0.33,0.128-0.458,0.534-0.276,0.906
		c0.542,1.124,0.82,1.687,1.398,2.795c0.186,0.359,0.018,0.439-0.378,0.158c-1.202-0.853-1.791-1.28-2.931-2.307
		c-0.376-0.337-0.941-0.536-1.265-0.432c-0.977,0.311-1.464,0.463-2.435,0.781c-0.322,0.104-0.507-0.07-0.415-0.386
		c0.295-0.959,0.44-1.432,0.731-2.368c0.103-0.312-0.117-0.838-0.47-1.184c-1.099-1.068-1.641-1.618-2.701-2.697
		c-0.345-0.354-0.294-0.502,0.116-0.337c1.261,0.519,1.889,0.771,3.166,1.259c0.414,0.161,0.839,0.044,0.936-0.254
		c0.307-0.938,0.465-1.401,0.783-2.33c0.103-0.302,0.306-0.221,0.459,0.168c0.468,1.217,0.71,1.826,1.205,3.04
		c0.164,0.394,0.639,0.829,1.071,0.976c1.32,0.444,2.011,0.521,3.387,0.802C105.797,99.188,105.882,99.364,105.545,99.496"/>
	<path fill="#FFFFFF" d="M115.902,88.953c-1.01,0.702-1.506,1.028-2.486,1.625c-0.312,0.193-0.453,0.592-0.312,0.884
		c0.44,0.892,0.664,1.329,1.115,2.19c0.153,0.288-0.009,0.367-0.351,0.182c-1.034-0.555-1.541-0.858-2.54-1.504
		c-0.331-0.213-0.84-0.279-1.141-0.145c-0.907,0.413-1.353,0.605-2.235,0.983c-0.292,0.125-0.451,0.004-0.356-0.266
		c0.282-0.822,0.428-1.232,0.724-2.063c0.096-0.273-0.079-0.695-0.398-0.939c-0.965-0.762-1.434-1.21-2.369-2.029
		c-0.305-0.266-0.256-0.402,0.113-0.318c1.128,0.278,1.698,0.401,2.862,0.601c0.381,0.062,0.775-0.143,0.878-0.454
		c0.325-0.967,0.492-1.456,0.828-2.465c0.112-0.321,0.303-0.305,0.428,0.037c0.388,1.067,0.597,1.597,0.998,2.653
		c0.13,0.341,0.56,0.647,0.955,0.665c1.229,0.056,1.85,0.061,3.129-0.01C116.156,88.559,116.225,88.722,115.902,88.953"/>
	<path fill="#FFFFFF" d="M124.31,72.975c-0.97,1.015-1.457,1.515-2.425,2.48c-0.312,0.308-0.48,0.792-0.377,1.074
		c0.328,0.85,0.494,1.27,0.844,2.085c0.112,0.264-0.045,0.427-0.354,0.351c-0.942-0.228-1.4-0.365-2.294-0.689
		c-0.292-0.107-0.782,0.038-1.085,0.32c-0.929,0.854-1.416,1.273-2.276,2.031c-0.278,0.247-0.423,0.173-0.321-0.153
		c0.309-1.006,0.554-1.548,0.93-2.608c0.127-0.351-0.002-0.746-0.282-0.879c-0.86-0.423-1.279-0.657-2.11-1.144
		c-0.269-0.158-0.207-0.329,0.138-0.382c1.072-0.174,1.612-0.279,2.716-0.541c0.355-0.088,0.755-0.463,0.885-0.826
		c0.396-1.132,0.592-1.703,0.998-2.865c0.127-0.38,0.31-0.436,0.4-0.124c0.28,0.965,0.428,1.437,0.725,2.361
		c0.097,0.297,0.484,0.439,0.854,0.313c1.15-0.399,1.735-0.619,2.912-1.112C124.569,72.515,124.626,72.65,124.31,72.975"/>
	<path fill="#FFFFFF" d="M106.029,62.447c0.994,0.085,1.38,0.061,2.545,0.022c0.339-0.012,0.689-0.303,0.783-0.66
		c0.289-1.1,0.438-1.669,0.735-2.848c0.098-0.38,0.27-0.401,0.38-0.049c0.344,1.095,0.517,1.616,0.863,2.646
		c0.112,0.331,0.479,0.537,0.824,0.537c0.929,0,1.519-0.03,2.683-0.088c0.35-0.018,0.428,0.121,0.127,0.358
		c-0.855,0.673-1.297,0.904-2.135,1.572c-0.286,0.229-0.396,0.702-0.282,1.013c0.349,0.939,0.525,1.4,0.882,2.301
		c0.118,0.298-0.015,0.411-0.298,0.261c-0.857-0.461-1.284-0.701-2.135-1.206c-0.28-0.166-0.726-0.118-0.988,0.099
		c-0.793,0.664-1.186,0.983-1.963,1.582c-0.252,0.193-0.392,0.08-0.309-0.22c0.251-0.9,0.379-1.379,0.647-2.366
		c0.088-0.323-0.077-0.726-0.347-0.919c-0.87-0.623-1.278-0.975-2.113-1.674C105.656,62.58,105.701,62.418,106.029,62.447"/>
	<path fill="#FFFFFF" d="M87.592,58.892c1.172,0.335,1.753,0.504,2.909,0.843c0.382,0.107,0.771-0.047,0.869-0.343
		c0.316-0.926,0.474-1.4,0.803-2.38c0.104-0.312,0.302-0.27,0.43,0.104c0.397,1.16,0.588,1.74,0.97,2.889
		c0.12,0.372,0.524,0.762,0.897,0.872c1.163,0.337,1.737,0.5,2.896,0.828c0.376,0.108,0.432,0.297,0.123,0.426
		c-0.946,0.391-1.405,0.573-2.326,0.917c-0.298,0.112-0.443,0.498-0.33,0.863c0.352,1.11,0.521,1.656,0.864,2.743
		c0.112,0.355-0.036,0.408-0.328,0.107c-0.88-0.902-1.326-1.356-2.228-2.258c-0.295-0.296-0.778-0.457-1.064-0.358
		c-0.873,0.296-1.303,0.437-2.161,0.701c-0.278,0.091-0.435-0.058-0.34-0.328c0.288-0.817,0.438-1.23,0.73-2.079
		c0.098-0.279-0.074-0.748-0.381-1.037c-0.957-0.893-1.447-1.335-2.435-2.195C87.169,58.922,87.215,58.786,87.592,58.892"/>
	<path fill="#FFFFFF" d="M133.422,58.199c-0.851,0.775-1.298,1.176-2.21,2.012c-0.298,0.271-0.463,0.688-0.361,0.916
		c0.313,0.695,0.476,1.029,0.821,1.67c0.114,0.209-0.04,0.356-0.344,0.32c-0.916-0.103-1.364-0.178-2.249-0.354
		c-0.292-0.059-0.781,0.125-1.096,0.414c-0.951,0.873-1.433,1.315-2.403,2.195c-0.318,0.284-0.467,0.251-0.328-0.083
		c0.427-1.008,0.641-1.518,1.059-2.527c0.141-0.33,0.024-0.672-0.255-0.761c-0.86-0.263-1.278-0.416-2.113-0.747
		c-0.268-0.108-0.196-0.281,0.167-0.386c1.108-0.314,1.664-0.484,2.774-0.828c0.36-0.113,0.762-0.479,0.901-0.812
		c0.419-1.039,0.634-1.555,1.045-2.593c0.139-0.334,0.309-0.379,0.386-0.102c0.234,0.843,0.36,1.25,0.63,2.038
		c0.087,0.254,0.444,0.361,0.797,0.251c1.086-0.36,1.622-0.536,2.666-0.874C133.646,57.84,133.698,57.952,133.422,58.199"/>
	<path fill="#FFFFFF" d="M95.818,76.639c0.621-0.167,0.71-0.483-0.025-0.444c-1.26,0.063-15.941,3.442-28.667,10.866
		c-13.846,8.078-18.032,12.102-20.989,14.394c-0.783,0.606-1.362,0.616-1.5,0.245c-0.472-1.259-0.769-1.977-1.153-3.157
		c-0.118-0.359-0.458-0.319-0.61,0.183c-0.519,1.71-0.766,2.754-1.271,4.296c-0.16,0.495-0.33,1.038-1.249,1.677
		c-1.818,1.266-2.195,1.512-3.329,2.283c-0.411,0.28-0.624,0.588,0.197,0.736c0.789,0.143,0.945,0.173,2.01,0.368
		c0.851,0.157,0.57,0.732,0.449,1.233c-0.346,1.432-0.494,2.007-0.954,3.479c-0.156,0.483,0.043,0.545,0.438,0.135
		c1.21-1.265,1.603-1.689,2.879-3.021c0.482-0.502,0.932-1.076,1.437-0.985c1.249,0.225,1.398,0.263,3.148,0.594
		c0.775,0.146,0.771-0.211,0.564-0.721c-0.599-1.483-0.488-1.288-0.942-2.543c-0.146-0.401-0.171-1.15,0.283-1.593
		c7.295-7.098,10.315-9.416,20.342-15.956C74.73,83.584,85.168,79.515,95.818,76.639z"/>
</g>
</svg>
