<?xml version="1.0" encoding="utf-8"?>
<!-- Generator: Adobe Illustrator 17.0.0, SVG Export Plug-In . SVG Version: 6.00 Build 0)  -->
<!DOCTYPE svg PUBLIC "-//W3C//DTD SVG 1.1//EN" "http://www.w3.org/Graphics/SVG/1.1/DTD/svg11.dtd">
<svg version="1.1" id="Layer_1" xmlns="http://www.w3.org/2000/svg" xmlns:xlink="http://www.w3.org/1999/xlink" x="0px" y="0px"
	 width="170px" height="170px" viewBox="0 0 170 170" enable-background="new 0 0 170 170" xml:space="preserve">
<rect x="24.766" y="24.766" transform="matrix(-0.7071 0.7071 -0.7071 -0.7071 204.1342 84.556)" fill="#0B6C81" width="119.579" height="119.579"/>
<g>
	<path fill="#FFFFFF" d="M120.904,85.684c-0.047,0.483-0.09,0.967-0.143,1.45c-0.232,2.152-0.81,4.201-1.951,6.052
		c-1.105,1.793-2.717,3.018-4.648,3.798c-2.639,1.067-5.391,1.497-8.238,1.289c-2.893-0.211-5.555-1.07-7.93-2.763
		c-2.036-1.453-3.201-3.486-3.855-5.847c-0.525-1.899-0.619-3.839-0.469-5.796c0.109-1.438,0.262-2.871,0.748-4.237
		c1.082-3.037,3.061-5.216,6.104-6.409c2.045-0.801,4.144-1.246,6.339-1.281c2.602-0.042,5.102,0.401,7.464,1.505
		c1.884,0.88,3.526,2.066,4.653,3.865c0.694,1.108,1.117,2.332,1.386,3.596c0.223,1.051,0.32,2.13,0.473,3.196
		c0.023,0.167,0.046,0.333,0.068,0.5C120.904,84.963,120.904,85.324,120.904,85.684z M102.949,84.792
		c0.041,1.467,0.07,2.922,0.367,4.368c0.311,1.515,1.178,2.416,2.695,2.7c0.885,0.167,1.76,0.152,2.645-0.039
		c1.669-0.361,2.562-1.318,2.717-3.02c0.088-0.959,0.16-1.921,0.184-2.883c0.039-1.63,0.035-3.256-0.298-4.872
		c-0.302-1.468-1.149-2.32-2.593-2.646c-1.027-0.232-2.033-0.165-3.042,0.096c-1.391,0.358-2.19,1.253-2.362,2.66
		C103.113,82.363,103.051,83.58,102.949,84.792z"/>
	<path fill="#FFFFFF" d="M51.096,73.403c0.016-0.263,0.056-0.526,0.041-0.787c-0.017-0.309,0.066-0.415,0.404-0.415
		c4.93,0.012,9.861,0.009,14.792,0.008c0.243,0,0.489,0.01,0.731-0.012c0.258-0.024,0.322,0.079,0.321,0.324
		c-0.009,1.612-0.005,3.223-0.003,4.835c0,0.254,0.005,0.509,0.022,0.762c0.017,0.237-0.081,0.311-0.314,0.309
		c-1.028-0.01-2.058,0.004-3.086-0.01c-0.286-0.003-0.384,0.078-0.384,0.376c0.009,4.157,0.008,8.313,0,12.47
		c0,0.279,0.084,0.363,0.363,0.359c1.112-0.014,2.225-0.006,3.367-0.006c0,2.048,0,4.075,0,6.14c-0.137,0-0.261,0-0.385,0
		c-5.133,0-10.265,0-15.396,0c-0.425,0-0.427,0-0.427-0.408c-0.001-1.782,0.006-3.563-0.007-5.345
		c-0.002-0.301,0.076-0.401,0.391-0.395c0.984,0.02,1.972-0.001,2.957,0.013c0.283,0.004,0.389-0.068,0.389-0.371
		c-0.01-4.167-0.008-8.334-0.002-12.502c0.001-0.262-0.074-0.347-0.34-0.343c-1.145,0.018-2.29,0.016-3.436,0.021
		C51.096,76.754,51.096,75.079,51.096,73.403z"/>
	<path fill="#FFFFFF" d="M85.65,56.157c0.568,0.045,1.138,0.09,1.707,0.134c3.605,0.282,7.037,1.211,10.297,2.781
		c3.027,1.459,5.709,3.402,8.066,5.794c1.268,1.287,2.407,2.681,3.424,4.174c0.053,0.077,0.096,0.159,0.145,0.24
		c-0.498,0.234-1.078,0.09-1.369-0.325c-1.49-2.125-3.278-3.966-5.31-5.578c-0.239-0.19-0.438-0.186-0.688-0.035
		c-0.716,0.432-1.44,0.851-2.165,1.269c-0.33,0.19-0.377,0.355-0.127,0.681c0.289,0.376,0.621,0.722,0.899,1.105
		c0.692,0.955,1.364,1.923,2.045,2.886c-0.017,0.034-0.034,0.067-0.051,0.101c-0.319,0-0.642,0.023-0.958-0.013
		c-0.103-0.012-0.196-0.172-0.279-0.277c-0.917-1.164-1.834-2.329-2.746-3.497c-0.141-0.18-0.282-0.19-0.494-0.113
		c-1.482,0.537-2.969,1.058-4.454,1.585c-0.058,0.021-0.112,0.049-0.243,0.107c0.291,0.729,0.578,1.447,0.883,2.208
		c-0.334,0-0.621,0.02-0.902-0.011c-0.092-0.01-0.201-0.134-0.252-0.231c-0.244-0.47-0.475-0.946-0.699-1.426
		c-0.104-0.221-0.239-0.273-0.482-0.216c-1.768,0.416-3.562,0.628-5.372,0.734c-0.232,0.013-0.465,0.055-0.696,0.05
		c-0.209-0.005-0.293,0.092-0.307,0.274c-0.012,0.159-0.031,0.32-0.01,0.476c0.039,0.295-0.111,0.375-0.365,0.368
		c-0.041-0.001-0.084-0.002-0.127-0.004c-0.555-0.026-0.555-0.026-0.546-0.6c0.007-0.459-0.075-0.545-0.544-0.561
		c-2.036-0.071-4.052-0.311-6.043-0.739c-0.214-0.045-0.316,0.008-0.4,0.187c-0.214,0.46-0.447,0.913-0.645,1.38
		c-0.117,0.275-0.289,0.396-0.583,0.374c-0.186-0.015-0.373-0.003-0.636-0.003c0.086-0.239,0.141-0.415,0.212-0.583
		c0.198-0.467,0.404-0.932,0.608-1.396c0.083-0.189,0.021-0.275-0.176-0.344c-1.477-0.516-2.952-1.039-4.424-1.573
		c-0.184-0.067-0.294-0.04-0.408,0.104c-0.842,1.062-1.738,2.087-2.508,3.199c-0.393,0.565-0.815,0.69-1.449,0.566
		c0.053-0.104,0.098-0.205,0.153-0.3c0.733-1.284,1.608-2.467,2.556-3.598c0.088-0.105,0.183-0.207,0.264-0.318
		c0.121-0.166,0.11-0.297-0.09-0.411c-0.85-0.477-1.697-0.958-2.537-1.451c-0.217-0.126-0.369-0.036-0.513,0.094
		c-0.866,0.779-1.785,1.51-2.575,2.36c-1.009,1.084-1.908,2.269-2.865,3.401c-0.082,0.097-0.232,0.175-0.358,0.189
		c-0.261,0.029-0.527,0.009-0.853,0.009c0.072-0.127,0.116-0.216,0.172-0.297c4.214-6.232,9.988-10.238,17.271-12.08
		c1.902-0.481,3.838-0.76,5.805-0.808c0.094-0.002,0.186-0.03,0.279-0.045C84.675,56.157,85.162,56.157,85.65,56.157z
		 M84.457,64.112c-0.004,0-0.009,0-0.014,0c0-0.943,0-1.886,0-2.83c-0.001-0.222-0.053-0.36-0.336-0.382
		c-0.611-0.047-1.219-0.138-1.825-0.229c-0.228-0.034-0.382,0.022-0.515,0.209c-0.184,0.259-0.389,0.502-0.581,0.755
		c-1.05,1.387-2.007,2.834-2.837,4.364c-0.213,0.392-0.153,0.543,0.268,0.618c0.875,0.154,1.748,0.327,2.629,0.417
		c0.955,0.098,1.92,0.106,2.879,0.164c0.296,0.018,0.342-0.126,0.338-0.383C84.449,65.914,84.457,65.012,84.457,64.112z
		 M91.666,66.455c-0.051-0.127-0.072-0.208-0.111-0.28c-1.002-1.898-2.192-3.672-3.534-5.347c-0.125-0.156-0.259-0.182-0.442-0.151
		c-0.532,0.086-1.066,0.165-1.602,0.235c-0.457,0.06-0.467,0.052-0.468,0.523c-0.004,1.569-0.005,3.138,0.001,4.707
		c0.002,0.357,0.039,0.714,0.061,1.108C87.637,67.171,89.65,66.997,91.666,66.455z M90.667,59.546
		c-0.078,0.027-0.149,0.046-0.216,0.075c-0.39,0.165-0.775,0.339-1.168,0.496c-0.269,0.107-0.256,0.247-0.116,0.462
		c1.163,1.793,2.321,3.589,3.475,5.389c0.101,0.158,0.189,0.206,0.383,0.162c1.399-0.315,2.735-0.811,4.046-1.382
		c0.366-0.16,0.404-0.305,0.106-0.572c-0.788-0.707-1.569-1.424-2.396-2.085c-1.166-0.934-2.403-1.77-3.761-2.411
		C90.906,59.627,90.785,59.59,90.667,59.546z M77.002,66.24c0.09-0.105,0.215-0.212,0.29-0.346c1.004-1.781,2.05-3.534,3.312-5.149
		c0.069-0.088,0.133-0.206,0.138-0.312c0.003-0.09-0.06-0.233-0.134-0.267c-0.412-0.19-0.832-0.366-1.258-0.521
		c-0.111-0.041-0.277-0.03-0.383,0.025c-2.292,1.23-4.326,2.812-6.215,4.589c-0.265,0.249-0.219,0.445,0.133,0.576
		c0.91,0.339,1.822,0.677,2.74,0.997C76.053,65.982,76.495,66.091,77.002,66.24z M84.938,57.222c-0.73,0-1.467-0.062-2.189,0.014
		c-1.229,0.128-2.449,0.34-3.67,0.528c-0.092,0.014-0.225,0.115-0.237,0.192c-0.015,0.085,0.063,0.232,0.144,0.279
		c0.482,0.283,0.96,0.585,1.471,0.807c2.007,0.87,4.104,1.063,6.252,0.738c1.459-0.221,2.836-0.685,4.073-1.509
		c0.109-0.073,0.156-0.24,0.232-0.363c-0.112-0.059-0.22-0.147-0.339-0.172C88.783,57.333,86.871,57.125,84.938,57.222z
		 M77.218,58.233c-0.018,0.022-0.035,0.044-0.053,0.065c-0.155,0.026-0.315,0.037-0.466,0.082c-0.242,0.073-0.476,0.171-0.715,0.253
		c-2.412,0.833-4.695,1.93-6.812,3.362c-0.148,0.1-0.295,0.211-0.416,0.341c-0.139,0.148-0.136,0.309,0.061,0.42
		c0.748,0.421,1.492,0.845,2.245,1.256c0.22,0.12,0.409,0.08,0.62-0.109c0.996-0.888,1.982-1.792,3.035-2.608
		c0.97-0.75,2.018-1.398,3.038-2.083c0.16-0.107,0.309-0.255,0.181-0.401C77.735,58.585,77.461,58.423,77.218,58.233z
		 M98.555,64.033c0.133-0.044,0.229-0.06,0.308-0.105c0.717-0.408,1.433-0.819,2.146-1.235c0.266-0.155,0.268-0.318,0-0.501
		c-2.458-1.688-5.077-3.038-7.965-3.841c-0.389-0.108-0.646,0.003-0.91,0.226c-0.223,0.189-0.205,0.418,0.045,0.562
		c2.24,1.298,4.245,2.897,6.085,4.713C98.346,63.932,98.465,63.978,98.555,64.033z"/>
	<path fill="#FFFFFF" d="M74.57,96.025c0,0.603,0,1.141,0,1.706c-1.887,0-3.744,0-5.618,0c0-3.089,0-6.17,0-9.27
		c0.091-0.008,0.173-0.022,0.255-0.022c1.526-0.001,3.053-0.004,4.58,0.006c0.113,0,0.281,0.067,0.331,0.155
		c0.937,1.647,2.395,2.623,4.138,3.235c1.942,0.683,3.91,0.761,5.902,0.24c0.041-0.011,0.082-0.023,0.123-0.036
		c0.404-0.123,0.793-0.305,0.789-0.788c-0.004-0.466-0.379-0.705-0.766-0.838c-1.009-0.349-2.027-0.672-3.047-0.987
		c-2.283-0.706-4.588-1.349-6.85-2.117c-1.736-0.589-3.187-1.651-4.328-3.113c-1.165-1.493-1.471-3.208-1.317-5.038
		c0.14-1.658,0.672-3.167,1.841-4.395c0.901-0.947,2.014-1.579,3.227-2.034c1.879-0.705,3.829-0.876,5.815-0.736
		c1.409,0.1,2.81,0.29,4.132,0.795c0.797,0.304,1.537,0.751,2.304,1.134c0.095,0.047,0.185,0.111,0.284,0.14
		c0.17,0.049,0.29,0.01,0.286-0.207c-0.005-0.318-0.014-0.637,0.011-0.954c0.008-0.09,0.125-0.244,0.192-0.244
		c1.717-0.014,3.434-0.011,5.188-0.011c0.006,0.123,0.015,0.224,0.015,0.325c0.002,2.662-0.001,5.323,0.012,7.985
		c0.001,0.286-0.09,0.359-0.361,0.358c-1.537-0.01-3.075-0.001-4.613-0.012c-0.129,0-0.314-0.053-0.381-0.146
		c-1.229-1.727-2.975-2.615-4.965-3.145c-1.223-0.325-2.465-0.413-3.715-0.347c-0.373,0.02-0.776,0.161-1.094,0.361
		c-0.66,0.417-0.629,1.201,0.071,1.55c0.562,0.28,1.177,0.466,1.782,0.646c2.688,0.795,5.401,1.506,8.064,2.376
		c2.541,0.831,4.48,2.475,5.505,4.982c1.439,3.522-0.094,7.818-3.739,9.539c-1.98,0.935-4.069,1.255-6.24,1.167
		c-2.131-0.085-4.168-0.56-6.113-1.425c-0.443-0.197-0.858-0.46-1.291-0.685C74.866,96.117,74.738,96.086,74.57,96.025z"/>
	<path fill="#FFFFFF" d="M109.427,100.706c-5.815,8.444-13.812,12.982-24.136,13.135c-11.285,0.167-20.211-6.305-24.525-13.228
		c0.559-0.234,1.017-0.111,1.359,0.369c1.507,2.108,3.246,3.997,5.279,5.609c0.25,0.198,0.455,0.204,0.717,0.045
		c0.672-0.406,1.341-0.817,2.033-1.183c0.6-0.317,0.486-0.535,0.176-0.941c-0.896-1.18-1.764-2.383-2.639-3.58
		c-0.077-0.106-0.127-0.233-0.218-0.401c0.362,0,0.667-0.02,0.968,0.011c0.096,0.01,0.191,0.141,0.265,0.235
		c0.907,1.172,1.813,2.346,2.712,3.526c0.195,0.257,0.388,0.261,0.682,0.151c1.438-0.538,2.883-1.048,4.328-1.562
		c0.361-0.128,0.373-0.123,0.213-0.485c-0.197-0.445-0.41-0.883-0.607-1.328c-0.07-0.16-0.115-0.332-0.191-0.55
		c0.333,0,0.615-0.014,0.896,0.009c0.075,0.007,0.165,0.116,0.208,0.199c0.25,0.467,0.513,0.93,0.719,1.416
		c0.126,0.295,0.297,0.317,0.566,0.273c0.949-0.156,1.899-0.319,2.854-0.436c1.051-0.128,2.106-0.227,3.162-0.3
		c0.311-0.021,0.373-0.165,0.389-0.408c0.004-0.053-0.002-0.106,0.002-0.159c0.011-0.191-0.012-0.535,0.043-0.548
		c0.262-0.061,0.544-0.044,0.817-0.025c0.05,0.003,0.118,0.142,0.128,0.224c0.02,0.167,0.021,0.34,0.002,0.508
		c-0.029,0.274,0.081,0.367,0.354,0.387c0.961,0.071,1.924,0.135,2.877,0.261c1.111,0.146,2.217,0.343,3.319,0.54
		c0.224,0.04,0.328-0.01,0.42-0.204c0.231-0.488,0.487-0.964,0.714-1.454c0.097-0.209,0.217-0.312,0.457-0.285
		c0.205,0.023,0.414,0.004,0.707,0.004c-0.315,0.775-0.604,1.483-0.904,2.226c0.557,0.186,1.078,0.348,1.592,0.533
		c1.025,0.371,2.049,0.745,3.065,1.138c0.229,0.088,0.37,0.06,0.515-0.129c0.836-1.082,1.705-2.139,2.5-3.249
		c0.281-0.393,0.547-0.601,1.021-0.522c0.123,0.021,0.251,0.003,0.434,0.003c-0.074,0.135-0.123,0.234-0.18,0.328
		c-0.799,1.33-1.714,2.575-2.731,3.746c-0.31,0.356-0.294,0.431,0.117,0.666c0.754,0.432,1.515,0.852,2.259,1.299
		c0.304,0.183,0.531,0.147,0.799-0.071c2.004-1.633,3.701-3.549,5.195-5.647c0.189-0.264,0.377-0.364,0.68-0.315
		c0.176,0.028,0.355,0.029,0.535,0.043C109.389,100.622,109.408,100.664,109.427,100.706z M85.64,102.788
		c0,0.303-0.001,0.638,0,0.974c0.009,1.684,0.017,3.367,0.036,5.051c0.001,0.094,0.104,0.256,0.178,0.268
		c0.697,0.112,1.398,0.209,2.102,0.283c0.117,0.012,0.291-0.075,0.367-0.172c1.314-1.691,2.503-3.465,3.51-5.358
		c0.154-0.291,0.128-0.367-0.207-0.419c-1.408-0.218-2.816-0.441-4.229-0.615C86.846,102.731,86.279,102.788,85.64,102.788z
		 M84.638,105.911c-0.007,0-0.015,0-0.022,0c0-0.943-0.001-1.887,0-2.83c0.001-0.223-0.028-0.376-0.326-0.363
		c-1.865,0.078-3.719,0.241-5.539,0.683c-0.348,0.085-0.383,0.158-0.213,0.477c1.004,1.873,2.155,3.648,3.504,5.292
		c0.095,0.115,0.308,0.207,0.453,0.191c0.609-0.063,1.212-0.182,1.819-0.261c0.27-0.035,0.335-0.161,0.331-0.42
		C84.629,107.756,84.638,106.833,84.638,105.911z M77.195,103.756c-0.127,0.027-0.203,0.034-0.271,0.059
		c-1.313,0.466-2.629,0.926-3.936,1.406c-0.37,0.136-0.391,0.359-0.091,0.632c0.431,0.393,0.86,0.786,1.302,1.165
		c1.482,1.272,3.059,2.411,4.773,3.351c0.195,0.107,0.361,0.124,0.564,0.028c0.422-0.197,0.85-0.378,1.282-0.55
		c0.226-0.09,0.234-0.202,0.104-0.382c-1.281-1.767-2.471-3.592-3.52-5.508C77.355,103.867,77.25,103.807,77.195,103.756z
		 M90.949,110.432c0.098-0.045,0.209-0.082,0.305-0.141c0.91-0.561,1.838-1.095,2.72-1.697c1.253-0.855,2.399-1.847,3.44-2.955
		c0.215-0.228,0.193-0.327-0.08-0.445c-1.281-0.557-2.59-1.031-3.957-1.341c-0.291-0.065-0.4,0.034-0.541,0.257
		c-1.092,1.726-2.199,3.441-3.299,5.161c-0.068,0.104-0.115,0.222-0.166,0.336c-0.064,0.146-0.023,0.226,0.137,0.283
		c0.338,0.121,0.666,0.269,1.002,0.4C90.646,110.344,90.789,110.381,90.949,110.432z M85.568,112.873
		c1.822-0.045,3.63-0.218,5.411-0.621c0.104-0.024,0.276-0.125,0.272-0.177c-0.011-0.114-0.088-0.265-0.184-0.321
		c-0.493-0.287-0.982-0.592-1.506-0.812c-1.959-0.825-4.002-1.016-6.099-0.726c-1.485,0.206-2.878,0.676-4.146,1.487
		c-0.114,0.073-0.178,0.226-0.264,0.341c0.122,0.077,0.235,0.195,0.367,0.223C81.447,112.699,83.498,112.889,85.568,112.873z
		 M92.832,111.769c0.161-0.044,0.244-0.062,0.323-0.089c0.842-0.281,1.698-0.528,2.522-0.854c1.975-0.781,3.841-1.773,5.564-3.021
		c0.359-0.261,0.342-0.419-0.051-0.641c-0.655-0.369-1.311-0.738-1.967-1.103c-0.435-0.241-0.515-0.225-0.893,0.11
		c-1.006,0.892-1.98,1.825-3.032,2.659c-0.927,0.735-1.941,1.361-2.921,2.029c-0.145,0.098-0.299,0.218-0.168,0.372
		C92.395,111.447,92.643,111.61,92.832,111.769z M71.512,105.917c-0.146,0.057-0.281,0.094-0.399,0.159
		c-0.657,0.363-1.312,0.731-1.966,1.103c-0.387,0.22-0.396,0.448-0.027,0.704c2.439,1.69,5.076,2.962,7.929,3.791
		c0.396,0.115,0.657-0.04,0.917-0.256c0.222-0.183,0.195-0.389-0.049-0.535c-2.252-1.339-4.308-2.93-6.145-4.801
		C71.703,106.011,71.603,105.973,71.512,105.917z"/>
</g>
</svg>
