<?xml version="1.0" encoding="utf-8"?>
<!-- Generator: Adobe Illustrator 17.0.0, SVG Export Plug-In . SVG Version: 6.00 Build 0)  -->
<!DOCTYPE svg PUBLIC "-//W3C//DTD SVG 1.1//EN" "http://www.w3.org/Graphics/SVG/1.1/DTD/svg11.dtd">
<svg version="1.1" id="Layer_1" xmlns="http://www.w3.org/2000/svg" xmlns:xlink="http://www.w3.org/1999/xlink" x="0px" y="0px"
	 width="170px" height="170px" viewBox="0 0 170 170" enable-background="new 0 0 170 170" xml:space="preserve">
<rect x="24.766" y="24.766" transform="matrix(-0.7071 0.7071 -0.7071 -0.7071 204.1342 84.556)" fill="#0B6C81" width="119.579" height="119.579"/>
<g>
	<path fill="#FFFFFF" d="M45.667,109.479c0-4.359,0-8.717,0-13.076c0.062,0.006,0.125,0.016,0.188,0.016c3.997,0,7.993,0,11.989,0
		c0.076,0,0.151-0.014,0.289-0.027c-0.313-1.076-0.583-2.124-0.922-3.149c-1.658-5.026-4.395-9.456-7.595-13.625
		c-0.376-0.49-0.765-0.97-1.147-1.455c6.278,2.52,10.826,6.805,13.419,13.153c0.062-0.132,0.104-0.209,0.135-0.29
		c1.018-2.61,2.261-5.111,3.631-7.552c0.037-0.065,0.075-0.167,0.049-0.223c-0.208-0.458-0.172-0.908,0.041-1.388
		c-0.454-0.067-0.878-0.148-1.307-0.19c-1.247-0.123-2.498-0.207-3.743-0.347c-2.045-0.232-3.744-1.138-5.082-2.708
		c-0.542-0.636-0.816-1.373-0.838-2.209c-0.03-1.179,0.356-2.237,0.937-3.236c0.097-0.167,0.104-0.302,0.045-0.478
		c-0.607-1.772-1.114-3.569-1.267-5.446c-0.088-1.079-0.075-2.152,0.349-3.174c0.654-1.578,2.238-2.023,3.621-1.021
		c1.017,0.736,1.897,1.616,2.676,2.598c1.606,2.024,2.737,4.307,3.632,6.717c0.035,0.094,0.077,0.187,0.133,0.324
		c0.081-0.138,0.128-0.223,0.179-0.306c0.354-0.576,0.687-1.169,1.07-1.726c0.775-1.125,1.688-2.119,2.869-2.836
		c0.633-0.385,1.308-0.649,2.06-0.685c1.176-0.056,1.791,0.522,1.828,1.687c0.048,1.533-0.274,2.996-0.791,4.426
		c-0.032,0.089-0.06,0.179-0.088,0.269c0.113-0.032,0.176-0.092,0.228-0.16c1.375-1.802,2.818-3.547,4.374-5.197
		c1.234-1.31,2.533-2.548,3.971-3.634c0.748-0.565,1.528-1.083,2.445-1.521c-0.408,0.547-0.776,1.034-1.138,1.524
		c-3.348,4.541-6.312,9.31-8.724,14.419c-2.368,5.017-4.203,10.209-5.314,15.65c-0.12,0.589-0.224,1.183-0.34,1.798
		c5.832,0,11.621,0,17.423,0c0.005-0.098,0.014-0.177,0.014-0.257c0.015-2.846,0.043-5.692,0.041-8.539
		c-0.004-5.278-0.03-10.556-0.039-15.834c-0.007-3.59-0.001-7.18-0.003-10.769c0-0.117-0.012-0.233-0.018-0.35
		c13.129,0,26.259,0,39.388,0c0,16.276,0,32.552,0,48.828c-0.108-0.006-0.216-0.015-0.324-0.015c-26.006,0-52.013,0-78.02,0
		C45.882,109.464,45.774,109.474,45.667,109.479z M66.001,80.731c-0.02-0.176-0.035-0.429-0.078-0.678
		c-0.595-3.405-1.776-6.588-3.637-9.507c-0.792-1.242-1.737-2.356-2.928-3.242c-0.123-0.091-0.252-0.177-0.389-0.246
		c-0.928-0.472-1.743-0.117-2.023,0.887c-0.191,0.683-0.158,1.378-0.069,2.073c0.158,1.234,0.505,2.422,0.91,3.593
		c0.055,0.16,0.05,0.277-0.044,0.425c-0.376,0.593-0.647,1.232-0.753,1.931c-0.171,1.136,0.145,2.104,1.069,2.813
		c0.369,0.283,0.776,0.56,1.21,0.704c0.897,0.298,1.817,0.537,2.741,0.741c1.182,0.262,2.386,0.428,3.497,0.946
		c0.453,0.211,0.501,0.179,0.495-0.336C66.001,80.826,66.001,80.817,66.001,80.731z M104.193,80.164
		c-0.042-0.103-0.068-0.158-0.088-0.215c-0.626-1.77-1.253-3.54-1.875-5.312c-0.063-0.182-0.137-0.28-0.357-0.277
		c-0.859,0.014-1.718,0.01-2.577,0.003c-0.188-0.001-0.251,0.064-0.251,0.252c0.004,2.866,0.004,5.732,0,8.599
		c0,0.194,0.074,0.247,0.256,0.243c0.479-0.009,0.958-0.003,1.438-0.003c0.389,0,0.389,0,0.389-0.396c0-2.078,0-4.155,0-6.316
		c0.046,0.132,0.067,0.188,0.086,0.245c0.686,2.073,1.374,4.146,2.053,6.222c0.06,0.183,0.139,0.261,0.34,0.251
		c0.351-0.018,0.705-0.019,1.057,0c0.212,0.012,0.299-0.073,0.364-0.263c0.502-1.488,1.013-2.972,1.521-4.458
		c0.214-0.627,0.429-1.255,0.643-1.882c0.015,0.002,0.029,0.006,0.043,0.01c0,0.061,0,0.121,0,0.182
		c0,2.034,0.003,4.069-0.005,6.103c0,0.233,0.055,0.32,0.302,0.311c0.497-0.02,0.995-0.016,1.492-0.001
		c0.22,0.006,0.295-0.056,0.295-0.286c-0.007-2.839-0.006-5.678,0-8.518c0-0.224-0.067-0.296-0.292-0.292
		c-0.841,0.011-1.682,0.011-2.523,0c-0.2-0.003-0.283,0.071-0.346,0.252c-0.402,1.161-0.814,2.317-1.224,3.474
		C104.694,78.766,104.451,79.443,104.193,80.164z M113.254,66.87c0.02-0.002,0.04-0.004,0.061-0.006
		c0.043,0.068,0.088,0.135,0.131,0.205c1.18,1.925,2.36,3.851,3.539,5.775c0.081,0.132,0.146,0.25,0.344,0.248
		c0.741-0.013,1.482-0.012,2.224-0.002c0.197,0.002,0.241-0.073,0.241-0.254c-0.004-2.856-0.006-5.713,0.002-8.569
		c0-0.229-0.085-0.271-0.285-0.266c-0.479,0.01-0.958,0.002-1.438,0.003c-0.353,0-0.354,0-0.354,0.358c0,1.809,0,3.616,0,5.424
		c0,0.092,0,0.185,0,0.277c-0.111-0.087-0.168-0.178-0.225-0.27c-1.127-1.841-2.257-3.68-3.376-5.526
		c-0.125-0.206-0.261-0.275-0.498-0.27c-0.705,0.016-1.411,0.016-2.115,0c-0.25-0.006-0.319,0.067-0.318,0.317
		c0.009,2.251,0.005,4.502,0.005,6.752c0,0.588,0.008,1.175-0.004,1.763c-0.004,0.205,0.063,0.264,0.264,0.259
		c0.524-0.012,1.049-0.002,1.573-0.005c0.068,0,0.137-0.016,0.231-0.028C113.254,70.983,113.254,68.927,113.254,66.87z
		 M95.67,70.115c-0.017,0.007-0.033,0.014-0.05,0.021c-0.155-0.251-0.31-0.502-0.464-0.754c-1.05-1.717-2.101-3.435-3.149-5.152
		c-0.077-0.126-0.145-0.231-0.328-0.229c-0.777,0.01-1.555,0.008-2.332,0.002c-0.171-0.001-0.239,0.05-0.239,0.231
		c0.004,2.875,0.004,5.748,0,8.623c0,0.18,0.065,0.235,0.238,0.232c0.497-0.008,0.995-0.018,1.491,0.004
		c0.272,0.011,0.356-0.066,0.354-0.346c-0.012-1.87-0.006-3.742-0.005-5.613c0-0.094,0.008-0.188,0.015-0.349
		c0.105,0.163,0.174,0.265,0.238,0.37c1.165,1.901,2.331,3.802,3.492,5.705c0.092,0.15,0.186,0.236,0.382,0.232
		c0.723-0.014,1.446-0.01,2.169-0.003c0.175,0.002,0.235-0.055,0.235-0.232c-0.004-2.875-0.004-5.748,0-8.623
		c0-0.181-0.066-0.234-0.238-0.231c-0.442,0.008-0.886,0-1.329,0.003c-0.549,0.003-0.477-0.065-0.477,0.472
		C95.668,66.356,95.67,68.236,95.67,70.115z M115.536,83.668c0.163,0,0.325,0.008,0.487-0.002c0.17-0.01,0.342-0.026,0.51-0.057
		c1.605-0.293,2.825-1.105,3.495-2.633c0.397-0.906,0.496-1.86,0.354-2.835c-0.241-1.648-1.085-2.863-2.624-3.552
		c-0.991-0.444-2.036-0.539-3.1-0.381c-1.505,0.223-2.7,0.938-3.447,2.297c-0.603,1.099-0.691,2.283-0.469,3.496
		c0.183,0.998,0.643,1.852,1.417,2.521C113.128,83.359,114.273,83.69,115.536,83.668z M99.55,68.54
		c0.03,0.333,0.033,0.669,0.093,0.996c0.273,1.503,1.08,2.617,2.471,3.281c1.037,0.494,2.134,0.598,3.253,0.425
		c1.546-0.238,2.754-0.996,3.477-2.422c0.444-0.876,0.563-1.813,0.479-2.787c-0.129-1.486-0.762-2.681-2.034-3.49
		c-1.212-0.772-2.551-0.904-3.936-0.667c-1.055,0.18-1.967,0.648-2.678,1.465C99.878,66.256,99.55,67.338,99.55,68.54z
		 M95.349,79.956c0,0.287,0,0.538,0,0.79c0,0.661,0.003,0.672-0.638,0.853c-0.924,0.26-1.841,0.285-2.693-0.236
		c-0.795-0.486-1.162-1.25-1.232-2.148c-0.08-1.024,0.184-1.94,1.031-2.603c1.016-0.795,2.733-0.727,3.696,0.131
		c0.094,0.083,0.172,0.227,0.326,0.053c0.391-0.438,0.792-0.868,1.191-1.298c0.103-0.109,0.112-0.204-0.02-0.287
		c-0.335-0.211-0.654-0.462-1.013-0.616c-1.09-0.467-2.241-0.549-3.401-0.375c-1.213,0.181-2.251,0.713-3.008,1.707
		c-0.82,1.076-1.074,2.305-0.917,3.631c0.22,1.855,1.174,3.188,2.944,3.796c1.902,0.653,3.775,0.358,5.573-0.478
		c0.079-0.037,0.137-0.201,0.138-0.307c0.009-1.419,0.006-2.838,0.005-4.257c0-0.079-0.012-0.157-0.018-0.225
		c-0.036-0.016-0.052-0.028-0.068-0.028c-1.112-0.003-2.224-0.003-3.335-0.01c-0.173-0.001-0.185,0.099-0.185,0.228
		c0.001,0.47,0.012,0.94-0.004,1.41c-0.008,0.227,0.089,0.277,0.288,0.272C94.444,79.949,94.878,79.956,95.349,79.956z
		 M66.734,80.654c0.073-0.081,0.111-0.116,0.142-0.157c1.205-1.647,2.253-3.384,3.042-5.271c0.568-1.359,0.975-2.76,1.013-4.247
		c0.024-0.937-0.581-1.473-1.505-1.341c-0.591,0.084-1.096,0.359-1.555,0.722c-1.128,0.89-1.869,2.071-2.475,3.347
		c-0.055,0.115-0.062,0.278-0.033,0.404c0.364,1.565,0.754,3.125,1.104,4.694C66.598,79.393,66.643,80,66.734,80.654z
		 M113.201,103.114c0,1.22,0.001,2.439-0.001,3.659c0,0.16,0.004,0.279,0.222,0.274c1.011-0.023,2.025,0.018,3.031-0.059
		c2.295-0.175,3.87-2.092,3.618-4.333c-0.226-2.005-1.71-3.408-3.728-3.438c-0.958-0.014-1.915,0.003-2.872-0.008
		c-0.216-0.003-0.275,0.062-0.274,0.274C113.206,100.694,113.201,101.904,113.201,103.114z M71.276,99.265
		c-0.004,0.056-0.015,0.126-0.015,0.196c-0.001,0.904-0.001,1.807-0.001,2.711c0,1.527,0.004,3.054-0.004,4.582
		c-0.001,0.221,0.056,0.31,0.287,0.294c0.251-0.018,0.507-0.021,0.759,0c0.253,0.021,0.325-0.075,0.322-0.32
		c-0.012-0.885-0.005-1.771-0.004-2.657c0-0.104,0.014-0.208,0.022-0.333c0.198,0,0.37,0.012,0.539-0.003
		c0.211-0.019,0.334,0.051,0.445,0.248c0.538,0.961,1.1,1.908,1.646,2.865c0.083,0.145,0.176,0.205,0.343,0.199
		c0.325-0.011,0.65-0.001,0.976-0.004c0.137-0.001,0.273-0.012,0.46-0.021c-0.729-1.174-1.426-2.295-2.129-3.428
		c0.083-0.031,0.132-0.053,0.184-0.07c0.989-0.325,1.622-1.242,1.54-2.231c-0.093-1.122-0.757-1.92-1.873-2.009
		C73.625,99.193,72.465,99.265,71.276,99.265z M108.827,105.737c-1.357,0-2.672,0-3.993,0c0-0.702,0-1.365,0-2.05
		c0.115,0,0.213,0,0.311,0c0.995,0,1.989-0.004,2.984,0.003c0.186,0.001,0.263-0.053,0.254-0.246
		c-0.011-0.243-0.018-0.489,0.002-0.731c0.021-0.257-0.065-0.345-0.332-0.341c-0.967,0.014-1.935,0.006-2.902,0.005
		c-0.104,0-0.209-0.011-0.314-0.017c0-0.637,0-1.246,0-1.872c0.119,0,0.217,0,0.315,0c1.076,0,2.152-0.006,3.228,0.005
		c0.216,0.002,0.291-0.065,0.277-0.277c-0.014-0.234-0.018-0.471,0.001-0.705c0.02-0.241-0.069-0.305-0.307-0.303
		c-1.528,0.01-3.056,0.005-4.584,0.005c-0.089,0-0.178,0-0.284,0c-0.01,0.104-0.024,0.184-0.024,0.262
		c-0.001,2.433,0,4.865-0.004,7.297c-0.001,0.21,0.067,0.28,0.281,0.277c0.805-0.011,1.609-0.005,2.414-0.005
		s1.61,0.001,2.415-0.001c0.12,0,0.267,0.037,0.264-0.17C108.824,106.513,108.827,106.152,108.827,105.737z M66.232,102.382
		c-1.18,0-2.348,0-3.503,0c0-0.656,0-1.267,0-1.91c1.271,0,2.521,0,3.763,0c0-0.437,0-0.838,0-1.259c-0.113,0-0.202,0-0.292,0
		c-1.51,0-3.02,0.006-4.529-0.006c-0.258-0.002-0.338,0.063-0.336,0.329c0.012,1.682,0.006,3.363,0.006,5.045
		c0,0.732,0.001,1.464-0.001,2.197c0,0.147,0.002,0.266,0.206,0.266c1.654-0.004,3.309-0.003,4.964,0
		c0.17,0.001,0.219-0.075,0.214-0.23c-0.007-0.244-0.018-0.489,0.003-0.732c0.022-0.259-0.064-0.343-0.329-0.339
		c-1.122,0.013-2.242,0.005-3.364,0.005c-0.104,0-0.208,0-0.31,0c0-0.706,0-1.371,0-2.071c1.177,0,2.337,0,3.507,0
		C66.232,103.236,66.232,102.832,66.232,102.382z M50.141,99.215c0.049,0.135,0.079,0.226,0.114,0.316
		c0.87,2.258,1.742,4.515,2.61,6.772c0.284,0.739,0.28,0.723,1.067,0.749c0.313,0.011,0.454-0.088,0.567-0.381
		c0.922-2.383,1.863-4.757,2.797-7.135c0.037-0.094,0.068-0.192,0.115-0.323c-0.438,0-0.827,0.011-1.214-0.005
		C56,99.2,55.913,99.271,55.846,99.452c-0.458,1.245-0.927,2.486-1.393,3.729c-0.222,0.591-0.444,1.183-0.683,1.819
		c-0.18-0.5-0.341-0.95-0.503-1.399c-0.501-1.383-1-2.767-1.507-4.148c-0.033-0.089-0.115-0.225-0.179-0.228
		C51.115,99.206,50.648,99.215,50.141,99.215z M88.926,100.498c0.094-0.004,0.156-0.01,0.219-0.01c1.066,0,2.132-0.004,3.198,0.004
		c0.198,0.001,0.279-0.052,0.265-0.259c-0.016-0.234-0.018-0.471,0-0.704c0.02-0.244-0.055-0.324-0.312-0.322
		c-1.446,0.012-2.892,0.006-4.337,0.006c-0.401,0-0.402,0-0.403,0.391c0,1.654,0,3.307,0,4.96c0,0.732,0.006,1.464-0.002,2.196
		c-0.003,0.212,0.068,0.292,0.282,0.28c0.262-0.015,0.525-0.015,0.786,0c0.223,0.013,0.297-0.066,0.295-0.293
		c-0.011-0.885-0.005-1.771-0.004-2.656c0-0.095,0.009-0.19,0.016-0.309c1.149,0,2.266,0,3.387,0c0-0.433,0-0.841,0-1.271
		c-1.143,0-2.26,0-3.39,0C88.926,101.833,88.926,101.178,88.926,100.498z M88.799,84.779c0,0.163,0,0.278,0,0.394
		c0,1.391,0,2.782,0,4.173c0,0.876,0,1.752,0,2.629c0,0.375,0,0.375,0.362,0.375c0.163,0.001,0.326-0.013,0.487,0.004
		c0.228,0.022,0.295-0.068,0.292-0.291c-0.01-0.895-0.005-1.788-0.003-2.683c0-0.105,0.011-0.21,0.019-0.339
		c0.611,0,1.196,0.006,1.781-0.001c1.16-0.015,2.105-0.68,2.192-1.896c0.081-1.129-0.442-1.97-1.442-2.24
		c-0.301-0.081-0.622-0.114-0.934-0.119C90.653,84.769,89.751,84.779,88.799,84.779z M106.93,90.184c0.119,0,0.216,0,0.313,0
		c1.057,0,2.114,0,3.17,0c0.543,0,0.543,0,0.533-0.551c-0.033-1.767-1.49-2.869-3.2-2.42c-1.413,0.371-2.209,1.818-1.841,3.323
		c0.566,2.314,3.335,2.334,4.459,1.276c0.408-0.384,0.412-0.378-0.04-0.719c-0.029-0.021-0.062-0.04-0.086-0.065
		c-0.185-0.196-0.323-0.187-0.523,0.023c-0.57,0.6-1.394,0.688-2.102,0.26C107.205,91.062,106.955,90.71,106.93,90.184z
		 M97.574,89.797c-0.001,1.504,1.177,2.687,2.708,2.689c1.435,0.002,2.713-1.064,2.719-2.68c0.004-1.546-1.192-2.678-2.71-2.688
		C98.773,87.107,97.576,88.297,97.574,89.797z M112.723,89.811c0-0.539,0.146-1.025,0.576-1.374c0.592-0.481,1.415-0.437,2.005,0.1
		c0.138,0.125,0.228,0.14,0.358,0.004c0.137-0.144,0.288-0.275,0.439-0.403c0.152-0.128,0.126-0.23-0.012-0.352
		c-0.85-0.756-2.295-0.891-3.264-0.283c-0.96,0.603-1.287,1.51-1.203,2.601c0.076,0.981,0.531,1.729,1.44,2.125
		c0.971,0.422,1.938,0.375,2.831-0.238c0.398-0.274,0.384-0.293,0.047-0.63c-0.097-0.096-0.198-0.187-0.287-0.289
		c-0.11-0.126-0.188-0.099-0.315-0.003c-0.198,0.149-0.411,0.313-0.644,0.375C113.62,91.733,112.713,90.97,112.723,89.811z
		 M119.795,91.386c-0.148,0.034-0.243,0.056-0.338,0.079c-0.7,0.161-1.019-0.081-1.027-0.797c-0.008-0.75-0.005-1.5-0.004-2.25
		c0-0.077,0.013-0.155,0.022-0.25c0.283,0,0.544,0,0.805,0c0.648,0,0.637,0,0.649-0.635c0.004-0.246-0.081-0.312-0.312-0.303
		c-0.376,0.016-0.753,0.004-1.165,0.004c0-0.396,0-0.755,0-1.114c0-0.678,0-0.678-0.672-0.674c-0.376,0.002-0.376,0.002-0.376,0.392
		c0,0.457,0,0.914,0,1.397c-0.129,0-0.218,0-0.307,0c-0.714,0.004-0.71,0.004-0.668,0.727c0.009,0.149,0.057,0.212,0.208,0.208
		c0.249-0.007,0.499-0.002,0.766-0.002c0,0.139,0,0.237,0,0.335c0.001,0.877-0.007,1.753,0.005,2.63
		c0.01,0.737,0.328,1.19,0.982,1.29c0.399,0.06,0.821-0.007,1.23-0.041c0.072-0.006,0.184-0.127,0.192-0.203
		C119.811,91.929,119.795,91.677,119.795,91.386z M82.517,107.004c0-0.129,0-0.237,0-0.344c0-1.301,0-2.603,0-3.904
		c0-1.093-0.004-2.187,0.004-3.28c0.001-0.201-0.061-0.275-0.263-0.263c-0.252,0.014-0.507,0.019-0.759-0.001
		c-0.247-0.019-0.322,0.061-0.321,0.315c0.01,2.395,0.005,4.79,0.007,7.185c0,0.095,0.01,0.189,0.016,0.292
		C81.65,107.004,82.07,107.004,82.517,107.004z M98.417,107.002c0-0.108,0-0.197,0-0.286c0-0.931,0-1.862,0-2.792
		c0-1.473-0.004-2.945,0.004-4.419c0.001-0.222-0.059-0.309-0.288-0.292c-0.234,0.018-0.472,0.021-0.705-0.001
		c-0.271-0.025-0.352,0.061-0.351,0.342c0.012,2.376,0.007,4.752,0.007,7.13c0,0.098,0,0.196,0,0.318
		C97.537,107.002,97.963,107.002,98.417,107.002z M102.724,93.872c-0.033,0.259-0.074,0.532-0.096,0.806
		c-0.003,0.048,0.063,0.129,0.116,0.151c0.695,0.293,1.667-0.059,1.929-0.749c0.134-0.352,0.178-0.755,0.183-1.138
		c0.02-1.653,0.008-3.308,0.008-4.961c0-0.75,0-0.741-0.74-0.751c-0.251-0.003-0.318,0.078-0.317,0.325
		c0.01,1.826,0.008,3.651,0.004,5.477c-0.001,0.743-0.261,0.953-0.991,0.822C102.803,93.852,102.785,93.86,102.724,93.872z
		 M95.574,87.833c-0.019-0.032-0.038-0.051-0.04-0.072c-0.051-0.523-0.051-0.524-0.579-0.523c-0.063,0-0.127,0.007-0.189,0
		c-0.227-0.028-0.292,0.07-0.29,0.294c0.009,1.355,0.004,2.71,0.004,4.067c0,0.759,0,0.75,0.767,0.757
		c0.231,0.001,0.291-0.077,0.289-0.296c-0.009-0.84-0.015-1.681,0.004-2.521c0.021-0.917,0.708-1.456,1.609-1.289
		c0.083,0.016,0.169,0.015,0.295,0.026c0-0.277-0.007-0.52,0.002-0.761c0.013-0.351-0.012-0.391-0.378-0.395
		C96.461,87.113,95.965,87.353,95.574,87.833z M104.34,86.22c0.409-0.002,0.745-0.335,0.741-0.737
		c-0.003-0.389-0.371-0.748-0.756-0.739c-0.409,0.01-0.732,0.346-0.729,0.755C103.599,85.921,103.91,86.223,104.34,86.22z"/>
	<path fill="#FFFFFF" d="M115.532,81.76c-1.626,0-2.744-1.156-2.744-2.839c0-1.696,1.121-2.854,2.761-2.853
		c1.603,0.001,2.761,1.186,2.74,2.857C118.266,80.708,117.078,81.774,115.532,81.76z"/>
	<path fill="#FFFFFF" d="M101.693,68.549c0.017-1.269,0.593-2.239,1.667-2.649c1.725-0.661,3.718,0.242,3.828,2.435
		c0.037,0.735-0.091,1.427-0.547,2.019c-0.741,0.962-1.759,1.2-2.885,0.956c-1.083-0.235-1.727-0.964-1.974-2.038
		C101.728,69.036,101.721,68.79,101.693,68.549z"/>
	<path fill="#FFFFFF" d="M114.601,100.438c0.747,0.055,1.503,0.039,2.227,0.184c1.027,0.205,1.602,0.933,1.79,1.944
		c0.32,1.707-0.695,2.98-2.519,3.154c-0.439,0.042-0.885,0.014-1.327,0.024c-0.144,0.003-0.213-0.042-0.213-0.199
		c0.003-1.635,0.002-3.27,0.003-4.904C114.563,100.598,114.579,100.555,114.601,100.438z"/>
	<path fill="#FFFFFF" d="M72.629,102.545c0-0.731,0-1.405,0-2.149c0.625,0.039,1.247,0.032,1.853,0.125
		c0.541,0.083,0.767,0.459,0.738,1.026c-0.026,0.518-0.329,0.855-0.89,0.911C73.776,102.514,73.217,102.518,72.629,102.545z"/>
	<path fill="#FFFFFF" d="M89.957,88.035c0-0.74,0-1.502,0-2.294c0.704,0.002,1.397-0.072,2.076,0.118
		c0.496,0.139,0.786,0.578,0.75,1.088c-0.045,0.645-0.384,1.034-1.03,1.08C91.17,88.067,90.583,88.035,89.957,88.035z"/>
	<path fill="#FFFFFF" d="M106.953,89.326c-0.014-0.712,0.729-1.383,1.505-1.368c0.823,0.017,1.419,0.613,1.352,1.368
		C108.858,89.326,107.906,89.326,106.953,89.326z"/>
	<path fill="#FFFFFF" d="M98.684,89.6c0.016-0.46,0.229-1.022,0.847-1.323c0.593-0.288,1.195-0.252,1.741,0.143
		c0.689,0.5,0.829,1.743,0.29,2.473c-0.502,0.679-1.54,0.819-2.257,0.304C98.908,90.912,98.683,90.403,98.684,89.6z"/>
</g>
</svg>
