<?xml version="1.0" encoding="utf-8"?>
<!-- Generator: Adobe Illustrator 17.0.0, SVG Export Plug-In . SVG Version: 6.00 Build 0)  -->
<!DOCTYPE svg PUBLIC "-//W3C//DTD SVG 1.1//EN" "http://www.w3.org/Graphics/SVG/1.1/DTD/svg11.dtd">
<svg version="1.1" id="Layer_1" xmlns="http://www.w3.org/2000/svg" xmlns:xlink="http://www.w3.org/1999/xlink" x="0px" y="0px"
	 width="170px" height="170px" viewBox="0 0 170 170" enable-background="new 0 0 170 170" xml:space="preserve">
<rect x="24.766" y="24.766" transform="matrix(-0.7071 0.7071 -0.7071 -0.7071 204.1342 84.556)" fill="#0B6C81" width="119.579" height="119.579"/>
<g>
	<circle fill="#0C6D81" cx="85" cy="84.964" r="39.23"/>
	<path fill="#FFFFFF" d="M118.844,84.964c0,18.691-15.152,33.845-33.844,33.845s-33.844-15.153-33.844-33.845H118.844z"/>
	<path fill="#FFFFFF" d="M124.23,84.964c0,21.666-17.562,39.231-39.23,39.231S45.77,106.63,45.77,84.964
		c0-21.667,17.562-39.231,39.23-39.231S124.23,63.297,124.23,84.964z M85,48.786c-19.98,0-36.178,16.198-36.178,36.178
		S65.02,121.142,85,121.142s36.178-16.198,36.178-36.178S104.98,48.786,85,48.786z"/>
	<path fill="#0C6D81" d="M53.645,97.724l65.199-12.76L53.065,96.201C53.246,96.714,53.439,97.222,53.645,97.724z"/>
	<path fill="#0C6D81" d="M61.017,108.843l57.827-23.879l-58.951,22.695C60.258,108.062,60.632,108.458,61.017,108.843z"/>
	<path fill="#0C6D81" d="M73.849,116.928l44.995-31.964L72.03,116.233C72.628,116.481,73.234,116.713,73.849,116.928z"/>
	<path fill="#0C6D81" d="M92.1,118.062l26.744-33.098L89.739,118.48C90.535,118.368,91.322,118.228,92.1,118.062z"/>
	<g>
		<path fill="#FFFFFF" d="M68.533,66.245v10.879c0,1.458,0.397,1.838,1.06,1.838s1.059-0.38,1.059-1.838V66.245h3.521v9.887
			c0,4.224-1.628,5.492-4.579,5.492c-2.952,0-4.579-1.268-4.579-5.492v-9.887H68.533z"/>
		<path fill="#FFFFFF" d="M80.567,70.597v-0.359c0-0.887-0.322-1.626-1.004-1.626c-0.755,0-1.097,0.654-1.097,1.331
			c0,2.979,5.752,1.521,5.752,7.034c0,3.211-1.684,4.647-4.787,4.647c-2.914,0-4.54-1.12-4.54-4.246V76.85h3.405v0.358
			c0,1.289,0.472,1.754,1.154,1.754c0.718,0,1.135-0.634,1.135-1.458c0-2.979-5.525-1.5-5.525-6.844c0-3.042,1.457-4.71,4.428-4.71
			c3.064,0,4.371,1.415,4.371,4.647H80.567z"/>
		<path fill="#FFFFFF" d="M85.845,66.245h5.109c4.067,0,4.276,3.592,4.276,7.542c0,3.949-0.209,7.541-4.276,7.541h-5.109V66.245z
			 M89.365,78.497h0.7c1.362,0,1.532-0.634,1.532-4.71c0-4.078-0.17-4.711-1.532-4.711h-0.7V78.497z"/>
		<path fill="#FFFFFF" d="M98.583,66.245h4.428l3.293,15.083h-3.747l-0.358-2.641h-2.801l-0.36,2.641h-3.746L98.583,66.245z
			 M100.816,69.329h-0.038l-0.965,6.4h1.968L100.816,69.329z"/>
	</g>
	<g>
		<path fill="#0C6D81" d="M62.788,89.08c2.748,0,3.688,1.675,3.688,5.972c0,4.298-0.94,5.972-3.688,5.972S59.1,99.349,59.1,95.051
			C59.1,90.754,60.04,89.08,62.788,89.08z M62.788,98.995c0.824,0,0.911-0.836,0.911-3.943c0-3.106-0.087-3.943-0.911-3.943
			c-0.825,0-0.912,0.837-0.912,3.943C61.876,98.159,61.963,98.995,62.788,98.995z"/>
		<path fill="#0C6D81" d="M67.445,89.305h4.21c2.053,0,2.835,1.288,2.835,3.058c0,1.529-0.535,2.527-1.766,2.736v0.032
			c1.303,0.129,1.692,1.046,1.692,2.576v0.982c0,0.596,0,1.368,0.132,1.593c0.071,0.129,0.129,0.258,0.302,0.354v0.161h-2.862
			c-0.262-0.612-0.262-1.707-0.262-2.189v-0.773c0-1.304-0.231-1.642-0.882-1.642h-0.709v4.604h-2.69V89.305z M70.136,94.166h0.535
			c0.767,0,1.128-0.547,1.128-1.368c0-0.933-0.332-1.335-1.143-1.335h-0.521L70.136,94.166L70.136,94.166z"/>
		<path fill="#0C6D81" d="M79.221,94.553h3.47v6.245h-1.822l-0.058-1.015h-0.029c-0.361,0.982-1.314,1.24-2.227,1.24
			c-2.734,0-2.98-2.173-2.98-5.972c0-3.847,0.665-5.972,3.848-5.972c1.91,0,3.269,1.079,3.269,3.863h-2.603
			c0-0.58-0.044-1.03-0.145-1.336c-0.103-0.322-0.305-0.499-0.623-0.499c-0.881,0-0.969,0.837-0.969,3.943
			c0,3.107,0.088,3.943,0.911,3.943c0.564,0,0.896-0.402,0.911-2.415h-0.953C79.221,96.578,79.221,94.553,79.221,94.553z"/>
		<path fill="#0C6D81" d="M85.483,89.305h3.384l2.518,11.493h-2.864l-0.275-2.013h-2.14l-0.275,2.013h-2.864L85.483,89.305z
			 M87.189,91.655h-0.028l-0.737,4.877h1.504L87.189,91.655z"/>
		<path fill="#0C6D81" d="M91.833,89.305h3.009l1.735,7.082h0.029v-7.082h2.517v11.493h-2.95l-1.794-7.099h-0.028v7.099h-2.518
			C91.833,100.798,91.833,89.305,91.833,89.305z"/>
		<path fill="#0C6D81" d="M100.294,89.305h2.691v11.493h-2.691V89.305z"/>
		<path fill="#0C6D81" d="M108.279,92.798c0-1.304-0.217-1.69-0.737-1.69c-0.825,0-0.911,0.837-0.911,3.943
			c0,3.107,0.086,3.943,0.911,3.943c0.665,0,0.81-0.644,0.81-2.817h2.604v0.853c0,3.22-1.692,3.992-3.413,3.992
			c-3.022,0-3.688-1.69-3.688-5.972c0-4.394,0.896-5.972,3.688-5.972c2.43,0,3.341,1.417,3.341,3.638v0.725h-2.604L108.279,92.798
			L108.279,92.798z"/>
	</g>
</g>
</svg>
