<?xml version="1.0" encoding="utf-8"?>
<!-- Generator: Adobe Illustrator 17.0.0, SVG Export Plug-In . SVG Version: 6.00 Build 0)  -->
<!DOCTYPE svg PUBLIC "-//W3C//DTD SVG 1.1//EN" "http://www.w3.org/Graphics/SVG/1.1/DTD/svg11.dtd">
<svg version="1.1" id="Layer_1" xmlns="http://www.w3.org/2000/svg" xmlns:xlink="http://www.w3.org/1999/xlink" x="0px" y="0px"
	 width="170px" height="170px" viewBox="0 0 170 170" enable-background="new 0 0 170 170" xml:space="preserve">
<rect x="24.766" y="24.766" transform="matrix(-0.7071 0.7071 -0.7071 -0.7071 204.1342 84.556)" fill="#0B6C81" width="119.579" height="119.579"/>
<path fill="#FFFFFF" d="M108.91,68.226C95.882,82.279,92.561,88.014,89.35,95.841c-1.697,4.138-2.894,4.157-4.442,4.138
	c-1.678-0.021-3.188-3.703-3.637-5.349c-7.553-27.674-31.356-37.162-31.372-34.858c-0.004,0.602,17.611,12.149,26.272,40.631
	c1.843,6.064,3.399,12.529,3.399,19.7h11.023c0,0-1.244-24.263,12.788-39.197c0,0,7.667,1.56,11.935-3.774
	c1.599-1.998,2.749-3.353,2.982-9.979c0,0-0.066-3.396,2.662-7.382c0,0,5.122-8.153,2.282-5.369c0,0-5.457,5.457-10.245,5.791
	c0,0-4.621-0.111-7.74,0.445c0,0-10.412,0.97-10.412,11.861c0,3.508,1.281,8.272,1.614,7.573
	c2.005-4.232,2.339-12.083,12.585-13.419C109.045,66.654,111.221,65.733,108.91,68.226z"/>
</svg>
