<?xml version="1.0" encoding="utf-8"?>
<!-- Generator: Adobe Illustrator 17.0.0, SVG Export Plug-In . SVG Version: 6.00 Build 0)  -->
<!DOCTYPE svg PUBLIC "-//W3C//DTD SVG 1.1//EN" "http://www.w3.org/Graphics/SVG/1.1/DTD/svg11.dtd">
<svg version="1.1" id="Layer_1" xmlns="http://www.w3.org/2000/svg" xmlns:xlink="http://www.w3.org/1999/xlink" x="0px" y="0px"
	 width="170px" height="170px" viewBox="0 0 170 170" enable-background="new 0 0 170 170" xml:space="preserve">
<rect x="24.766" y="24.766" transform="matrix(-0.7071 0.7071 -0.7071 -0.7071 204.1342 84.556)" fill="#0B6C81" width="119.579" height="119.579"/>
<g>
	<path fill="#FFFFFF" d="M123.834,79.222c-2.754-19.332-19.755-33.839-39.575-33.438C63.198,46.21,47.644,62.413,45.912,81.182
		c-1.016,11.022,2.041,20.835,9.228,29.252c7.192,8.424,16.528,12.832,27.489,14c1.79,0.151,4.526-0.062,5.85-0.212
		c10.842-1.186,20.122-5.866,27.113-14.626C122.693,100.698,125.439,90.495,123.834,79.222z M117.434,73.617
		c-0.285,0.282-1.143,0.177-1.649-0.006c-0.626-0.226-1.117-0.899-1.743-1.04c-0.707-0.16-1.725-0.224-2.211,0.165
		c-1.28,1.026-2.486,2.216-3.465,3.532c-1.549,2.083-0.868,6.42,1.181,8.006c0.367,0.284,1.321,0.348,1.617,0.082
		c0.84-0.752,1.712-0.926,2.423-0.18c0.812,0.851,2.016,2.035,1.908,2.938c-0.589,4.941,0.109,9.682,1.415,14.408
		c0.156,0.569-0.014,1.367-0.312,1.903c-12.212,21.925-44.114,24.5-59.891,4.892c-1.095-1.359-0.319-2.417-0.024-3.623
		c0.472-1.931,1.038-3.848,1.349-5.806c0.101-0.635-0.398-1.42-0.758-2.06c-0.529-0.94-1.28-1.763-1.754-2.725
		c-0.582-1.182-1.397-1.717-2.712-1.63c-1.058,0.07-2.061,0.109-2.037-1.521c0.022-1.543,0.749-1.793,2.056-1.714
		c0.794,0.048,1.607-0.2,2.464-0.323c-1.008-2.875-3.694-3.659-6.822-2.107c-0.283-4.619,0.399-9.017,1.812-13.308
		c1.521-4.615,3.897-8.758,7.103-12.419c1.306-1.492,4.101-2.13,5.927-1.348c3.629,1.556,5.405,4.127,4.934,8.025
		c-0.442,3.653,0.746,6.845,2.012,10.083c0.094,0.238,0.334,0.419,0.842,1.031c0.367-1.393,0.635-2.41,0.945-3.592
		c1.292,1.031,2.476,2.207,3.871,3.02c1.284,0.749,2.759,1.381,4.214,1.577c2.813,0.378,4.019,2.292,2.671,4.834
		c-0.449,0.847-1.126,1.576-1.723,2.339c-1.329,1.699-1.632,2.894-0.079,4.242c3.188,2.768,3.651,6.433,4.096,10.178
		c0.533,4.5,2.37,8.566,4.111,12.664c0.312,0.736,0.886,1.362,1.339,2.038c0.23-0.013,0.461-0.026,0.692-0.039
		c0.371-1.379,0.867-2.738,1.089-4.141c0.438-2.767,0.573-5.631,2.446-7.913c1.253-1.528,2.536-3.098,4.068-4.319
		c3.079-2.457,5.385-5.194,5.479-9.399c0.065-3-0.814-4.624-3.777-5.192c-3.585-0.688-7.231-1.054-10.85-1.573
		c-3.296-0.473-4.314-1.481-5.203-4.695c-0.319-1.159-1.013-2.214-1.703-3.671c2.071-3.956,4.217-3.524,8.324-2.115
		c0.433,0.149,0.64,0.959,0.951,1.464c0.404,0.658,0.808,1.317,1.211,1.976c0.24-0.078,0.48-0.157,0.721-0.235
		c-0.062-0.723-0.021-1.474-0.207-2.164c-0.315-1.169-0.01-1.916,1.187-2.194c2.204-0.512,3.399-1.734,4.044-4.051
		c0.531-1.908,2.156-3.515,1.709-5.742c-0.115-0.576-0.392-1.121-0.594-1.679c-0.534,0.271-1.163,0.442-1.58,0.837
		c-0.869,0.822-1.547,1.858-2.459,2.622c-0.609,0.511-1.465,0.889-2.25,0.976c-0.567,0.062-1.359-0.319-1.731-0.768
		c-0.182-0.219,0.298-1.083,0.595-1.585c0.897-1.518,2.036-2.92,2.738-4.518c0.91-2.073-0.167-3.465-2.419-3.114
		c-1.609,0.25-3.125,1.052-4.714,1.494c-1.858,0.517-3.736,0.991-5.633,1.33c-1.347,0.24-1.899-0.591-1.286-1.736
		c1.312-2.451,2.771-4.825,4.243-7.184c0.16-0.256,0.814-0.311,1.229-0.286c10.197,0.621,18.718,4.745,25.557,12.326
		c1.645,1.824,1.678,6.125,0.149,8.067c-0.429,0.545-0.768,1.162-1.148,1.746c0.125,0.156,0.25,0.313,0.375,0.469
		c0.954-0.5,1.927-0.968,2.859-1.506c1.827-1.054,3.777-0.308,4.029,1.776C118.766,72.121,118.023,73.036,117.434,73.617z"/>
	<path fill="#FFFFFF" d="M72.466,92.222c3.864,4.799,7.604,9.445,11.48,14.26c-0.966,1.128-2.322,2.381-4.218,2.575
		c-0.815,0.084-2.034-0.262-2.503-0.859c-3.173-4.043-6.171-8.224-9.283-12.317c-0.826-1.087-0.599-1.744,0.414-2.513
		c1.728-1.311,3.43-2.668,5.032-4.127c2.479-2.254,1.845-4.256-1.037-4.707c-0.145-0.022-0.267-0.18-0.676-0.473
		c1.768-1.138,3.346-2.866,5.095-3.062c1.516-0.171,3.267,1.332,4.799,2.279c0.175,0.108-0.149,1.674-0.644,2.1
		c-1.943,1.677-4.058,3.155-6.084,4.737C74.128,90.672,73.482,91.315,72.466,92.222z"/>
	<path fill="#FFFFFF" d="M57.139,84.927c2.096-1.253,4.146-2.593,6.303-3.731c1.646-0.87,2.466-0.286,2.504,1.57
		c0.129,6.451,0.141,12.906,0.422,19.35c0.107,2.457-0.626,4.17-2.679,5.412c-0.864,0.524-1.692,1.109-2.805,1.843
		c-0.202-0.91-0.447-1.531-0.461-2.158c-0.086-4.051-0.07-8.104-0.191-12.154c-0.073-2.446-0.299-4.889-0.517-7.328
		c-0.127-1.438-0.471-2.769-2.578-2.289C57.137,85.271,57.138,85.099,57.139,84.927z"/>
</g>
</svg>
