<?xml version="1.0" encoding="utf-8"?>
<!-- Generator: Adobe Illustrator 17.0.0, SVG Export Plug-In . SVG Version: 6.00 Build 0)  -->
<!DOCTYPE svg PUBLIC "-//W3C//DTD SVG 1.1//EN" "http://www.w3.org/Graphics/SVG/1.1/DTD/svg11.dtd">
<svg version="1.1" id="Layer_1" xmlns="http://www.w3.org/2000/svg" xmlns:xlink="http://www.w3.org/1999/xlink" x="0px" y="0px"
	 width="59.701px" height="89.074px" viewBox="-7.661 2.796 59.701 89.074"
	 style="enable-background:new -7.661 2.796 59.701 89.074;" xml:space="preserve">
<style type="text/css">
	.st0{fill:#006D82;}
	.st1{fill:#FFFFFF;}
</style>
<g>
	<path class="st0" d="M7.262,90.403c3.804-11.744,15.548-29.327,28.32-38.952c6.959-5.244,11.075-11.069,12.126-14.991
		c3.65-13.622-4.304-27.589-17.766-31.196l-0.001,0C16.48,1.655,2.607,9.774-1.043,23.396c-1.051,3.922-0.399,11.025,3.005,19.046
		c6.249,14.721,7.628,35.821,5.05,47.894L7.262,90.403z"/>
	<path d="M7.898,91.573l-2.021-0.542l0.191-0.897c2.482-11.625,1.293-32.501-4.994-47.315c-3.761-8.86-4.041-15.972-3.049-19.673
		C1.807,9.032,16.236,0.591,30.191,4.33c13.955,3.739,22.231,18.264,18.449,32.379c-0.992,3.701-4.79,9.72-12.477,15.512
		C23.312,61.906,11.844,79.391,8.181,90.7L7.898,91.573L7.898,91.573z M29.692,6.195C16.766,2.732,3.397,10.56-0.11,23.646
		c-0.867,3.235-0.611,10,2.961,18.419c5.341,12.584,7.087,29.454,6.071,41.642c5.215-11.063,15.161-24.8,26.079-33.027
		c7.303-5.504,10.907-11.235,11.774-14.47C50.282,23.123,42.618,9.659,29.692,6.195L29.692,6.195z"/>
</g>
<g>
	<polygon class="st1" points="17.826,36.968 15.371,31.838 19.167,36.318 19.22,30.223 20.689,36.036 23.537,28.54 22.298,36.412 
		26.436,32.154 23.434,37.46 28.962,35.477 24.271,38.693 30.137,38.902 23.067,40.488 31.892,42.852 29.526,18.893 23.349,17.238 
		9.147,36.758 17.969,39.122 12.641,34.217 	"/>
</g>
</svg>
